<?xml version="1.0" standalone="no"?>
<!DOCTYPE svg PUBLIC "-//W3C//DTD SVG 20010904//EN"
 "http://www.w3.org/TR/2001/REC-SVG-20010904/DTD/svg10.dtd">
<svg version="1.0" xmlns="http://www.w3.org/2000/svg"
 width="1973.000000pt" height="1973.000000pt" viewBox="0 0 1973.000000 1973.000000"
 preserveAspectRatio="xMidYMid meet">
<metadata>
Created by potrace 1.14, written by Peter Selinger 2001-2017
</metadata>
<g transform="translate(0.000000,1973.000000) scale(0.100000,-0.100000)"
fill="#000000" stroke="none">
<path d="M9670 19683 c-353 -40 -643 -189 -950 -488 -79 -77 -195 -198 -245
-256 -117 -135 -154 -180 -257 -309 -166 -210 -537 -710 -722 -973 -195 -277
-198 -281 -291 -417 -100 -145 -436 -651 -499 -750 -26 -41 -79 -124 -118
-185 -94 -147 -405 -652 -483 -784 -34 -58 -99 -169 -144 -246 -44 -77 -85
-147 -91 -155 -5 -8 -23 -40 -40 -70 -16 -30 -42 -75 -56 -100 -33 -55 -193
-342 -242 -430 -19 -36 -59 -110 -89 -165 -29 -55 -58 -107 -63 -115 -5 -8
-18 -33 -29 -55 -11 -22 -65 -125 -121 -230 -107 -202 -487 -959 -582 -1160
-141 -298 -173 -369 -280 -605 -38 -85 -80 -177 -93 -205 -18 -39 -144 -330
-264 -610 -5 -11 -16 -36 -25 -57 -9 -20 -16 -39 -16 -42 0 -3 -13 -35 -30
-71 -16 -36 -30 -68 -30 -72 0 -4 -9 -25 -19 -47 -11 -23 -72 -174 -136 -336
-64 -162 -120 -304 -125 -315 -5 -11 -25 -65 -46 -120 -20 -55 -42 -113 -49
-130 -7 -16 -20 -52 -30 -80 -10 -27 -23 -63 -30 -80 -7 -16 -18 -43 -23 -60
-6 -16 -42 -115 -80 -220 -96 -263 -377 -1079 -387 -1125 -1 -3 -11 -34 -22
-70 -62 -191 -191 -608 -226 -730 -9 -30 -36 -123 -61 -206 -132 -448 -398
-1469 -470 -1804 -3 -14 -13 -54 -21 -90 -8 -36 -18 -76 -20 -90 -3 -14 -17
-77 -31 -140 -14 -63 -28 -125 -30 -138 -3 -13 -15 -74 -29 -135 -25 -121 -65
-310 -71 -342 -2 -11 -6 -29 -8 -40 -14 -64 -36 -174 -40 -200 -2 -16 -23
-129 -46 -250 -38 -202 -47 -255 -64 -355 -4 -19 -8 -46 -11 -60 -3 -14 -7
-41 -10 -60 -3 -19 -8 -47 -11 -62 -3 -15 -7 -42 -9 -60 -3 -18 -12 -76 -20
-128 -22 -130 -24 -139 -30 -185 -4 -22 -8 -47 -10 -55 -2 -8 -7 -42 -10 -75
-4 -33 -8 -67 -10 -75 -5 -17 -11 -55 -19 -115 -32 -230 -70 -519 -81 -615 -3
-25 -10 -79 -15 -120 -5 -41 -12 -100 -15 -130 -3 -30 -8 -71 -10 -90 -2 -19
-7 -57 -10 -85 -3 -27 -7 -66 -10 -85 -2 -19 -7 -62 -10 -95 -3 -33 -8 -78
-11 -100 -11 -106 -24 -229 -39 -395 -3 -30 -7 -73 -10 -95 -2 -22 -7 -69 -10
-105 -3 -36 -7 -85 -10 -110 -2 -25 -6 -79 -10 -120 -3 -41 -8 -100 -11 -130
-25 -255 -34 -553 -22 -740 8 -133 11 -140 56 -140 38 0 35 -3 170 149 31 35
66 73 77 85 63 71 174 197 374 426 31 35 63 71 71 80 8 8 28 31 44 50 16 19
52 62 81 95 29 33 101 116 161 185 60 69 154 177 209 240 166 191 208 241 284
330 25 29 50 58 56 64 6 6 78 90 160 186 83 96 157 182 165 190 8 9 26 30 40
46 25 30 366 427 450 524 26 30 175 204 330 385 156 182 286 332 289 335 3 3
28 32 56 65 27 33 54 65 60 71 5 6 21 24 34 40 44 52 136 159 141 164 3 3 100
115 215 250 115 135 222 259 237 275 62 67 76 96 83 180 3 44 8 98 10 120 2
22 6 72 9 110 4 39 9 86 11 105 3 19 7 60 10 90 4 54 6 69 26 200 6 36 12 80
15 97 2 18 9 54 15 80 6 27 13 59 15 73 3 14 18 81 35 150 119 498 336 997
623 1435 62 95 257 360 275 375 3 3 31 34 61 70 138 164 327 352 510 505 52
44 101 86 108 93 7 6 17 12 20 12 4 0 21 12 38 28 17 15 38 32 47 37 8 6 57
40 109 76 414 291 899 512 1403 641 66 17 134 32 150 35 17 2 54 8 83 14 29 6
67 12 85 15 17 2 52 6 77 9 25 3 61 7 80 10 19 2 64 7 100 10 36 3 88 8 115
10 282 25 863 25 1170 0 90 -8 301 -31 355 -40 303 -49 594 -131 905 -255 148
-59 454 -206 533 -256 29 -19 54 -34 57 -34 7 0 226 -140 295 -189 73 -51 276
-207 300 -231 9 -8 45 -40 80 -70 76 -66 232 -219 320 -316 81 -88 67 -72 256
-307 8 -9 31 -41 51 -70 20 -28 55 -79 78 -112 114 -160 290 -481 380 -690 26
-60 55 -128 65 -150 27 -60 128 -359 151 -445 23 -85 68 -265 75 -295 2 -11 6
-31 9 -45 19 -87 41 -219 60 -360 10 -72 20 -171 30 -290 3 -36 7 -75 9 -85 2
-11 7 -67 11 -125 4 -58 13 -114 20 -125 7 -11 48 -61 91 -111 44 -49 102
-117 129 -149 75 -88 191 -222 250 -290 29 -33 65 -76 81 -95 16 -19 31 -37
34 -40 3 -3 30 -34 60 -70 30 -36 57 -67 60 -70 5 -5 174 -200 216 -250 12
-14 55 -63 96 -110 40 -47 87 -101 103 -121 17 -20 59 -69 94 -110 35 -41 87
-101 115 -133 28 -33 56 -64 61 -70 6 -6 50 -58 100 -116 110 -129 115 -135
206 -240 41 -47 97 -112 124 -144 28 -33 55 -64 60 -70 15 -17 73 -84 135
-156 30 -36 73 -85 95 -110 22 -25 67 -76 100 -115 33 -38 67 -77 75 -85 8 -9
35 -40 60 -70 25 -29 50 -58 55 -64 6 -6 37 -42 70 -81 33 -38 65 -75 70 -81
6 -6 35 -39 65 -74 214 -246 483 -552 516 -586 11 -12 31 -34 43 -50 12 -16
37 -45 55 -64 18 -19 72 -80 121 -135 48 -55 101 -113 116 -130 15 -16 37 -41
49 -55 71 -84 244 -260 256 -260 34 0 36 35 31 513 -3 260 -8 492 -10 517 -3
25 -8 77 -12 115 -3 39 -8 88 -10 110 -4 36 -17 177 -31 320 -2 28 -6 66 -9
85 -2 19 -7 62 -10 95 -3 33 -8 76 -10 95 -2 19 -7 62 -10 95 -4 33 -8 71 -10
85 -2 14 -6 48 -9 75 -3 28 -8 73 -11 100 -3 28 -8 67 -11 88 -7 64 -14 120
-24 192 -5 39 -12 90 -15 115 -3 25 -8 61 -10 80 -3 19 -8 53 -11 75 -8 69
-64 458 -74 515 -5 30 -12 75 -15 100 -4 25 -8 54 -10 65 -1 11 -12 81 -24
155 -12 74 -23 142 -26 150 -2 8 -6 33 -10 55 -6 42 -42 261 -51 305 -2 14 -7
40 -10 59 -3 18 -8 43 -10 55 -2 11 -9 48 -14 81 -6 33 -15 80 -20 105 -10 44
-54 274 -64 335 -3 17 -15 75 -26 130 -12 55 -24 112 -26 127 -3 15 -25 120
-50 235 -25 114 -47 219 -50 233 -3 14 -10 45 -15 70 -6 25 -13 56 -15 70 -5
24 -16 70 -68 290 -49 206 -79 328 -101 420 -9 36 -18 72 -20 80 -5 27 -96
372 -127 485 -16 61 -31 117 -33 125 -2 8 -22 83 -45 165 -23 83 -48 173 -55
200 -22 82 -164 564 -190 645 -13 41 -42 136 -65 210 -117 379 -327 1004 -468
1390 -130 356 -282 761 -308 817 -7 17 -14 34 -14 38 0 4 -7 23 -16 43 -20 45
-23 53 -70 172 -114 289 -394 955 -501 1190 -14 30 -45 100 -70 155 -66 148
-77 171 -123 270 -23 50 -55 117 -70 150 -15 33 -49 105 -75 160 -26 55 -67
142 -91 193 -24 50 -144 293 -267 540 -205 408 -280 557 -387 757 -20 38 -61
115 -89 170 -29 55 -63 118 -75 140 -12 22 -44 81 -70 130 -196 364 -533 952
-745 1300 -138 227 -196 322 -236 385 -23 36 -81 128 -130 205 -83 131 -497
756 -566 855 -17 25 -59 85 -93 135 -33 49 -66 97 -73 105 -13 17 -229 318
-253 354 -23 34 -77 108 -269 366 -187 252 -355 467 -485 620 -44 52 -92 109
-106 125 -14 17 -88 93 -165 170 -296 296 -559 442 -880 490 -22 3 -56 8 -75
11 -44 7 -403 13 -450 7z"/>
</g>
</svg>
