<?xml version="1.0" standalone="no"?>
<!DOCTYPE svg PUBLIC "-//W3C//DTD SVG 20010904//EN"
 "http://www.w3.org/TR/2001/REC-SVG-20010904/DTD/svg10.dtd">
<svg version="1.0" xmlns="http://www.w3.org/2000/svg"
 width="1980.000000pt" height="1980.000000pt" viewBox="0 0 1980.000000 1980.000000"
 preserveAspectRatio="xMidYMid meet">
<metadata>
Created by potrace 1.14, written by Peter Selinger 2001-2017
</metadata>
<g transform="translate(0.000000,1980.000000) scale(0.100000,-0.100000)"
fill="#000000" stroke="none">
<path d="M9949 19766 c-2 -2 -60 -7 -129 -10 -500 -27 -773 -149 -1130 -506
-69 -69 -149 -152 -177 -185 -107 -126 -151 -179 -236 -285 -62 -76 -240 -310
-351 -460 -75 -102 -143 -193 -151 -203 -8 -9 -15 -21 -15 -26 0 -5 -4 -11 -8
-13 -35 -14 -772 -1091 -1098 -1603 -185 -291 -534 -860 -534 -871 0 -3 -5
-10 -10 -17 -10 -11 -220 -367 -220 -372 0 -1 -23 -42 -52 -91 -60 -104 -114
-198 -153 -269 -104 -187 -126 -227 -157 -285 -19 -36 -47 -85 -60 -110 -266
-480 -789 -1524 -1022 -2043 -13 -28 -38 -83 -56 -122 -17 -38 -38 -83 -45
-100 -7 -16 -27 -60 -44 -98 -17 -37 -31 -69 -31 -71 0 -2 -15 -37 -34 -78
-19 -40 -64 -143 -100 -228 -37 -85 -71 -164 -76 -175 -5 -11 -26 -60 -46
-109 -19 -49 -39 -96 -44 -105 -4 -9 -12 -27 -18 -41 -5 -14 -21 -52 -35 -85
-48 -112 -265 -659 -331 -835 -37 -96 -72 -188 -79 -205 -6 -16 -12 -32 -13
-35 0 -3 -5 -16 -11 -30 -29 -69 -203 -555 -298 -830 -90 -261 -251 -750 -309
-940 -19 -63 -55 -180 -80 -260 -24 -80 -54 -176 -65 -215 -11 -38 -43 -149
-71 -245 -43 -151 -134 -475 -146 -520 -2 -8 -13 -49 -24 -90 -11 -41 -22 -82
-25 -90 -2 -8 -29 -114 -60 -235 -54 -208 -73 -283 -145 -585 -29 -119 -103
-447 -114 -500 -2 -14 -16 -74 -30 -135 -21 -94 -98 -459 -112 -535 -3 -14
-18 -92 -34 -175 -16 -82 -32 -166 -35 -185 -3 -19 -8 -42 -10 -50 -3 -8 -7
-33 -11 -55 -11 -74 -12 -81 -23 -136 -6 -30 -26 -146 -46 -259 -19 -113 -37
-216 -39 -230 -5 -26 -23 -148 -32 -210 -3 -19 -9 -57 -14 -85 -5 -27 -11 -68
-14 -90 -3 -22 -10 -74 -16 -115 -7 -41 -14 -88 -16 -105 -2 -16 -8 -61 -14
-100 -5 -38 -12 -90 -15 -115 -3 -25 -10 -72 -15 -105 -5 -33 -12 -84 -15
-114 -4 -30 -8 -62 -10 -72 -2 -10 -6 -42 -9 -71 -4 -29 -8 -62 -10 -73 -2
-11 -7 -49 -11 -85 -4 -36 -8 -72 -10 -80 -4 -21 -18 -150 -20 -180 -1 -14 -5
-50 -9 -80 -12 -93 -15 -122 -52 -485 -2 -27 -7 -68 -9 -90 -2 -22 -7 -71 -10
-110 -3 -38 -8 -88 -10 -110 -2 -22 -7 -74 -10 -115 -3 -41 -8 -93 -10 -115
-2 -22 -7 -76 -10 -120 -4 -44 -8 -98 -10 -120 -2 -22 -7 -76 -10 -120 -4 -44
-9 -100 -12 -125 -2 -25 -6 -179 -10 -342 -4 -256 -3 -298 9 -298 13 0 93 82
204 210 21 25 41 47 44 50 13 13 101 112 155 175 33 38 83 94 110 125 28 30
106 120 175 200 115 133 172 198 254 290 17 19 71 82 121 140 49 58 92 107 95
110 3 3 30 34 60 70 30 36 60 69 66 75 6 5 69 78 139 160 71 83 159 184 195
225 36 42 88 103 116 135 73 85 125 145 155 180 15 17 61 71 104 120 43 50 99
115 125 145 26 30 107 125 181 210 73 85 135 157 138 160 4 3 29 32 57 65 83
99 538 626 559 649 6 6 48 56 95 111 47 55 87 102 90 105 3 3 59 68 125 145
66 77 132 154 147 170 14 17 75 86 133 155 59 69 122 141 139 160 18 19 43 62
55 95 13 33 28 69 32 80 5 11 38 97 75 190 70 181 105 272 125 320 7 17 13 35
15 40 1 6 28 71 59 145 32 74 68 162 82 195 14 33 28 65 32 70 4 6 14 26 21
45 20 52 241 501 300 610 176 323 392 661 599 935 65 87 217 279 246 311 6 6
37 42 70 80 157 179 415 441 555 563 47 41 87 77 90 81 9 10 202 164 265 210
272 200 557 349 852 445 114 38 272 80 337 89 21 4 41 8 45 10 3 2 26 7 51 10
25 3 54 8 65 10 12 2 48 7 80 11 33 4 71 9 85 11 200 31 854 31 1100 -1 19 -3
55 -7 80 -10 25 -3 52 -7 60 -10 8 -2 36 -6 61 -9 123 -16 381 -94 569 -173
121 -51 429 -205 510 -255 369 -226 786 -598 1115 -993 28 -33 52 -62 55 -65
15 -15 174 -216 221 -280 518 -699 894 -1395 1185 -2193 76 -207 126 -310 220
-452 56 -86 137 -198 154 -215 3 -3 27 -34 55 -70 51 -67 265 -331 275 -340 3
-3 37 -43 75 -90 38 -47 75 -90 80 -96 6 -6 27 -31 46 -54 18 -23 39 -47 44
-54 6 -6 66 -76 134 -156 68 -80 143 -167 167 -195 23 -27 51 -60 61 -71 10
-12 38 -46 63 -75 135 -159 434 -508 458 -534 16 -16 52 -59 82 -95 30 -36 61
-72 70 -81 8 -9 31 -36 52 -60 20 -24 44 -54 55 -65 10 -12 41 -48 68 -79 28
-32 55 -63 60 -69 6 -6 50 -58 100 -116 77 -90 175 -203 259 -300 61 -71 212
-247 221 -258 5 -7 19 -23 31 -35 12 -12 120 -137 240 -277 120 -140 228 -266
240 -280 27 -32 171 -196 240 -275 53 -61 78 -90 116 -135 101 -118 271 -311
315 -357 28 -30 59 -30 67 0 5 20 0 317 -8 432 -2 28 -7 97 -11 155 -3 58 -8
132 -11 165 -2 33 -6 94 -9 135 -3 41 -7 98 -10 125 -2 28 -7 86 -10 130 -3
44 -8 98 -10 120 -2 22 -7 74 -10 115 -3 41 -8 98 -11 125 -2 28 -7 73 -10
100 -2 28 -7 70 -9 95 -5 43 -9 92 -20 200 -13 128 -16 157 -20 190 -3 19 -7
60 -10 90 -5 52 -9 90 -20 170 -3 19 -7 60 -10 90 -3 30 -8 66 -10 80 -2 14
-6 45 -9 70 -7 60 -36 279 -41 310 -2 14 -7 48 -10 75 -12 99 -16 120 -20 135
-2 8 -7 42 -10 75 -4 32 -8 62 -10 65 -1 3 -6 30 -9 61 -4 31 -8 65 -10 75 -2
11 -6 37 -10 59 -7 47 -55 349 -61 385 -2 14 -16 95 -31 180 -14 85 -28 169
-31 185 -5 30 -35 195 -74 400 -12 61 -23 121 -26 135 -9 51 -74 377 -88 440
-128 597 -212 959 -311 1350 -42 165 -101 393 -108 415 -2 6 -6 24 -11 40 -18
74 -172 627 -186 670 -5 17 -20 68 -33 115 -164 580 -479 1529 -754 2270 -169
456 -451 1167 -538 1358 -13 29 -24 55 -24 57 0 3 -10 27 -21 53 -12 26 -27
61 -34 77 -24 57 -77 180 -95 220 -10 22 -32 73 -50 114 -17 40 -47 106 -66
147 -19 41 -34 76 -34 78 0 2 -22 52 -50 110 -27 58 -50 108 -50 110 0 2 -22
51 -49 108 -70 147 -134 284 -166 353 -49 107 -462 936 -533 1070 -218 415
-312 589 -500 925 -63 113 -128 230 -145 260 -16 30 -34 60 -39 67 -5 7 -18
27 -27 45 -10 18 -41 74 -70 123 -29 50 -62 106 -73 125 -33 57 -380 631 -402
666 -36 56 -130 205 -151 240 -19 32 -51 82 -194 304 -189 293 -486 736 -671
1000 -52 74 -102 144 -110 157 -19 28 -231 325 -242 338 -4 6 -95 127 -201
270 -427 574 -689 867 -954 1068 -138 105 -316 192 -463 226 -117 27 -141 31
-255 37 -55 2 -112 7 -126 9 -15 2 -28 3 -30 1z"/>
</g>
</svg>
