<svg width="1e3" height="1e3" version="1.1" viewBox="0 0 633.33 633.33" xmlns="http://www.w3.org/2000/svg">
 <style type="text/css">.st0{fill:#10384F;}
	.st1{fill:#89D329;}
	.st2{fill:#00BCFF;}</style>
 <g stroke-width="8.3333">
  <path class="st1" d="m632.5 296.67c-10-165-147.5-296.67-315.83-296.67-168.33 0-305.83 131.67-315.83 296.67 0 6.6667.83333 13.333 1.6667 20 6.6667 55 27.5 105.83 59.167 148.33 57.5 78.333 150 129.17 255 129.17-146.67 0-266.67-114.17-276.67-257.5-.83333-6.6667-.83333-13.333-.83333-20 0-6.6667 0-13.333.83333-20 10-143.33 130-257.5 276.67-257.5 105 0 197.5 50.833 255 129.17 31.667 42.5 52.5 93.333 59.167 148.33.83333 6.6667 1.6667 13.333 1.6667 19.167 0-6.6667.83333-13.333.83333-20 0-5.8333 0-12.5-.83333-19.167" fill="#89d329"/>
  <path class="st2" d="m.83333 336.67c10 165 147.5 296.67 315.83 296.67 168.33 0 305.83-131.67 315.83-296.67 0-6.6667-.83334-13.333-1.6667-20-6.6667-55-27.5-105.83-59.167-148.33-57.5-78.333-150-129.17-255-129.17 146.67 0 266.67 114.17 276.67 257.5.83333 6.6667.83333 13.333.83333 20 0 6.6667 0 13.333-.83333 20-10 144.17-130 257.5-276.67 257.5-105 0-197.5-50.833-255-129.17-31.667-42.5-52.5-93.333-59.167-148.33-.83333-6.6667-1.6667-13.333-1.6667-19.167 0 6.6667-.83333 13.333-.83333 20 0 5.8333 0 12.5.83333 19.167" fill="#00bcff"/>
 </g>
 <g fill="#10384f">
  <path transform="scale(.63333)" d="m438.16 96.053v138.16h96.053c23.684 0 42.105-18.421 42.105-42.105 0-11.842-5.2635-22.369-13.158-30.264 5.2632-6.579 9.2096-15.789 10.525-25 0-22.368-18.421-40.789-40.789-40.789zm31.578 28.947h57.895c6.5789 0 11.844 5.2628 11.844 11.842 0 6.5789-5.2648 11.842-11.844 11.842h-57.895zm0 52.631h59.211c7.8947 0 13.158 5.2635 13.158 13.158 0 7.8947-5.2635 13.158-13.158 13.158h-59.211z" stroke-width="13.158"/>
  <path transform="scale(.63333)" d="m484.21 260.53-68.422 138.16h35.527l10.525-23.684h77.633l10.525 23.684h35.525l-69.736-138.16zm15.789 35.527 23.684 50h-47.367z" stroke-width="13.158"/>
  <path d="m346.67 271.67h25l-44.167 56.667v30.833h-20.833v-30.833l-44.167-56.667h25l30 40z" stroke-width="8.3333"/>
  <path transform="scale(.63333)" d="m773.68 428.95v138.16h32.895v-52.631h25l39.475 52.631h39.473l-40.789-53.947c17.105-5.2632 30.264-21.052 30.264-40.789 0-23.684-18.421-43.422-42.105-43.422zm34.211 28.947h47.369c6.579 0 13.158 6.5793 13.158 13.158 0 6.579-5.2635 13.158-13.158 13.158h-47.369z" stroke-width="13.158"/>
  <path d="m64.167 271.67v87.5h60.833c15 0 26.667-11.667 26.667-26.667 0-7.5-3.3335-14.167-8.3335-19.167 3.3333-4.1667 5.8328-10 6.6661-15.833 0-14.167-11.666-25.833-25.833-25.833zm19.999 18.333h36.667c4.1667 0 7.501 3.3331 7.501 7.4998 0 4.1667-3.3344 7.4998-7.501 7.4998h-36.667zm0 33.333h37.5c5 0 8.3335 3.3335 8.3335 8.3335s-3.3335 8.3335-8.3335 8.3335h-37.5z" stroke-width="8.3333"/>
  <path d="m207.5 271.67-43.334 87.5h22.501l6.6661-15h49.167l6.6661 15h22.499l-44.166-87.5zm9.9997 22.501 15 31.667h-29.999z" stroke-width="8.3333"/>
  <g>
   <path d="m462.5 271.67v18.808h-58.333v14.72h56.667v18.808h-56.667v16.355h58.333v18.808h-79.167v-87.5z" stroke-width="8.2551"/>
   <path d="m276.67 486.67v87.5h20.833v-33.333h15.833l25.001 33.333h24.999l-25.833-34.167c10.833-3.3333 19.167-13.333 19.167-25.833 0-15-11.667-27.501-26.667-27.501zm21.667 18.333h30c4.1667 0 8.3335 4.1669 8.3335 8.3335 0 4.1667-3.3335 8.3335-8.3335 8.3335h-30z" stroke-width="8.3333"/>
   <path d="m356.67 378.14v18.808h-58.333v14.72h56.667v18.808h-56.667v16.355h58.333v18.808h-79.167v-87.5z" stroke-width="8.2551"/>
  </g>
 </g>
</svg>
