<svg width="999.56" height="407.37" version="1.1" viewBox="-.88411 -.88411 72.31 29.458" xmlns="http://www.w3.org/2000/svg">
 <path d="m71.426 13.865v-.59107c0-.21733-.0203-.428-.0611-.63173-.0272-.20387-.0476-.40767-.0612-.61147-.0136-.20381-.0407-.39403-.0815-.57065h-11.352l-3.4444 5.4008h8.7229c-.25827.9104-.63187 1.7392-1.1209 2.4864-.4756.73374-1.0463 1.3723-1.712 1.9157v.0204c-.69293.54346-1.4607.97146-2.3029 1.284-.8288.29893-1.712.4484-2.6495.4484h-.0816-.0204c-1.2228 0-2.3777-.24454-3.4647-.73374-1.0869-.48906-2.0176-1.1413-2.7921-1.9565-.8016-.856-1.4333-1.8343-1.8953-2.9348s-.69293-2.2757-.69293-3.5257v-.0204-.0612c0-1.2364.23093-2.3981.69293-3.485.462-1.1005 1.1005-2.0584 1.9157-2.8736.8016-.81521 1.746-1.4674 2.8329-1.9565 1.0869-.48913 2.2419-.73369 3.4647-.73369h.0204.0204.0203.0408c.51627 0 1.0259.0476 1.5285.14267.51626.0815 1.0123.2038 1.4877.36684l-.10187-.0408c.4892.17664.94427.38044 1.3655.61141.4212.23099.8152.48235 1.1821.75408v-.0204l1.5285-2.4253 1.5285-2.4457c-.57067-.39402-1.1821-.74728-1.8343-1.0598-.63853-.3125-1.3044-.57744-1.9973-.79483l-.10187-.0408c-.67933-.19022-1.4063-.33968-2.1807-.44837-.77453-.12229-1.5557-.18343-2.3437-.18343h-.0612-.0408-.0611-.0612c-1.0461 0-2.0652.0951-3.0571.28533-.97826.19021-1.9293.47554-2.8532.85598l.12227-.0408c-.8968.39402-1.7323.84919-2.5068 1.3655-.7744.51629-1.4809 1.0938-2.1196 1.7323-.7608.80163-1.4063 1.5897-1.9361 2.3641-.51627.80162-.94427 1.5829-1.2839 2.3437-.33973.76087-.61827 1.5285-.8356 2.303-.20387.74728-.38733 1.4878-.55027 2.2215-.31253 1.4403-.63866 2.8125-.97826 4.1168-.33974 1.3044-1.0395 2.4797-2.0992 3.5259-.4076.4212-.856.8084-1.3452 1.1617-.47547.3396-.97147.62493-1.4877.85586l-.0612.0408c-.51626.20387-1.0597.36694-1.6304.4892-.55706.12227-1.148.18334-1.7731.18334h-.0408-.0204c-1.2635 0-2.4524-.24454-3.5665-.7336-1.1141-.4892-2.0924-1.1549-2.9348-1.9973-.8152-.8016-1.4673-1.7595-1.9565-2.8736-.48907-1.1277-.7336-2.3235-.7336-3.5871 0-1.2228.23773-2.3777.7132-3.4646.4756-1.1005 1.1277-2.0584 1.9565-2.8736.8288-.8288 1.8003-1.4878 2.9144-1.9769 1.1141-.50272 2.3031-.75408 3.5667-.75408.52987 0 1.0461.0476 1.5489.14267.50267.0815.99854.197 1.4877.34646h-.0816c.4892.14946.9376.33967 1.3452.57066.4076.21738.8016.46194 1.182.73369h-.0407l1.5488-2.4253 1.5693-2.466c-.55707-.38044-1.1617-.7269-1.8139-1.0394-.63853-.3125-1.3111-.57744-2.0176-.79484h-.0816c-.67932-.21739-1.4063-.38043-2.1807-.48913-.76093-.10869-1.5421-.16304-2.3437-.16304h-.0612-.0407-.0204-.0204c-1.2636 0-2.4864.15625-3.6685.46875-1.1684.29891-2.2689.72011-3.3016 1.2636l.0612-.0204c-1.0191.51631-1.9565 1.1481-2.8125 1.8954s-1.6168 1.5693-2.2827 2.466l-.0407.0204c-.27173-.81522-.66586-1.5557-1.1821-2.2215-.51627-.67935-1.1277-1.2432-1.8343-1.6916h-.0204c-.7472-.48914-1.5692-.86957-2.466-1.1413-.89666-.28532-1.8343-.42799-2.8125-.42799h-.10191-.0611-13.105v28.247h14.47.0815.0612c.8696 0 1.6984-.10867 2.4864-.326.788-.20387 1.5353-.496 2.2419-.8764l-.0612.0204c.66573-.36694 1.2636-.8016 1.7935-1.3044.54346-.51627.99866-1.0869 1.3655-1.712l.0408-.0611c.65214.74733 1.3791 1.4131 2.1807 1.9973.80173.58413 1.6509 1.0937 2.5476 1.5285l.10187.0203c.8968.4076 1.8615.72694 2.8941.95787 1.0325.24467 2.1059.36693 3.22.36693h.0204.0408.0611.0612c1.2636 0 2.4932-.15626 3.6888-.4688 1.1957-.29893 2.3099-.73373 3.3424-1.3043l-.0611.0611c1.0597-.55707 2.0176-1.216 2.8736-1.9769.856-.7744 1.6169-1.6304 2.2827-2.5679l.0204-.0612c.65213.95106 1.3993 1.8139 2.2417 2.5884.856.7608 1.78 1.4129 2.7717 1.9565l.0612.0407c1.0327.54347 2.1468.96467 3.3424 1.2636 1.1956.31253 2.4388.4688 3.7296.4688h.0204.0612.0407.0204c.99187 0 1.9565-.10187 2.894-.30573.9376-.20387 1.8343-.49587 2.6903-.8764.8696-.3668 1.6848-.8152 2.4456-1.3451.76093-.54347 1.4607-1.1481 2.0992-1.8139.65213-.65213 1.2296-1.3723 1.7324-2.1603.50267-.77454.93067-1.5965 1.2839-2.4661.35333-.86946.62506-1.7799.81533-2.7309.20373-.93747.3056-1.9157.3056-2.9348v-.0408-.0407zm-66.216-2.6699v-6.2568h6.9497.0204c.43481 0 .83561.0815 1.2024.24457.36694.14946.69974.36684.99867.65218h-.0204c.28533.28532.5028.61141.65227.97825.16293.36685.24453.76088.24453 1.1821v.0204.0204.0408.0408c0 .40761-.0816.80164-.24453 1.1821-.14947.36686-.36014.69294-.63187.97827h-.0204c-.28533.28532-.61133.50951-.97827.67255-.3668.16305-.7676.24457-1.2024.24457h-.0204zm0 11.556v-6.4199h8.2948.0204c.4484 0 .8696.0815 1.2636.24453.4076.16307.76774.38053 1.0801.65227.29893.2852.5368.62493.71333 1.0189.17667.394.26493.8084.26493 1.2432v.0204c0 .462-.0883.89-.26493 1.284-.17653.394-.4212.74053-.7336 1.0393-.29893.29894-.65227.53-1.0599.69294-.394.16306-.822.24466-1.284.24466h-8.2948z" fill="#00522e"/>
</svg>
