<svg width="300.5" height="158.1" version="1.1" viewBox="0 0 300.5 158.1" xmlns="http://www.w3.org/2000/svg">
 <defs>
  <style>.cls-1{fill:#c03;}.cls-2{fill:#5a0f09;}</style>
 </defs>
 <g data-name="Layer 2">
  <circle class="cls-1" cx="78.652" cy="79.446" r="78.652"/>
  <path class="cls-2" d="m69.998 38.039h.8625v-.8625h.87v-.8625h-.87v-.87h-.8625v.8625h-.8625v.8625h.8625zm15.278 50.25h.8625v-.69h.69v-.8625h-.69v-.69h-.8625v.69h-.69v.8625h.69zm-18.525-50.25h.8625v-.8625h.8625v-.8625h-.9v-.87h-.825v.8625h-.9v.8625h.9zm19.328 76.012c.96 6.27 1.17 12.165 1.8675 15.21l.84-.195c-.6675-2.88-.8925-8.835-1.86-15.15zm-8.6775-34.35a1.8749 1.8749 0 00-2.145.6675l.2925.2925a1.56 1.56 0 011.2075-.6675 1.4025 1.4025 0 011.3275 1.2525v1.0125h.4125v-1.0725a1.8374 1.8374 0 00-1.14-1.485zm2.61 0a1.8448 1.8448 0 00-1.1025 1.5v1.0725h.42v-1.0275a1.4025 1.4025 0 011.3275-1.2525 1.56 1.56 0 011.2075.6675l.2925-.2925a1.875 1.875 0 00-2.1825-.6675zm.6975.93c-.75 0-1.0425.2925-1.0425.57h.8625a.3.3 0 00-.195.27.345.345 0 00.69 0 .2927.2927 0 00-.18-.2625h.84c-.0375-.2624-.48-.5849-1.0125-.5849zm16.928-27.038-.885-1.335-.8325 1.335.8325 1.335zm-.885 30.472a2.0925 2.0925 0 10-2.1-2.1 2.0926 2.0926 0 002.1 2.1zm0-3.75a1.2364 1.2364 0 11-.015-.0075h.015zm-.4125 2.7675h.8625v-.69h.69v-.8625h-.69v-.69h-.8625v.69h-.69v.8625h.69zm-15.075-45h.8625v-.9075h.87v-.8625h-.87v-.87h-.8625v.8625h-.8625v.8625h.8625zm-3 0h.8625v-.9075h.8625v-.8625h-.8625v-.87h-.9v.8625h-.87v.8625h.87zm-3.075 0h.8625v-.9075h.87v-.8625h-.87v-.87h-.9v.8625h-.9v.8625h.8625zm1.65 42.54c-.75 0-1.0425.2925-1.0425.57h.8775a.3.3 0 00-.195.27.345.345 0 00.69 0 .2923.2923 0 00-.1875-.2625h.8325c-.03-.3225-.4725-.63-1.005-.63zm7.9125 30.9a2.3184 2.3184 0 00-.1275-.75.6752.6752 0 00-.615-.45 1.2971 1.2971 0 00-.8175.45c-.225.21-.45.4575-.6751.675a4.1922 4.1922 0 01-2.8724 1.155 3.99 3.99 0 01-2.475-.855 2.5954 2.5954 0 00-1.5-.8025.8548.8548 0 00-.75.5475 2.8183 2.8183 0 00-.1575 1.0725v.0975c0 .27.1575 1.1625.3975 2.5275.3525 2.0175.9225 4.9425 1.5 7.5525.3 1.305.6225 2.535.9225 3.54a8.8261 8.8261 0 00.9225 2.25 1.9877 1.9877 0 001.5975.93 2.0176 2.0176 0 001.845-1.6875c.195-.75 1.2975-5.6325 2.055-9.975a.3818.3818 0 000-.0524c.225-1.2976.42-2.5426.555-3.63a21.558 21.558 0 00.18-2.325 1.8213 1.8213 0 00.015-.27zm-3.63 15.99c-.21.75-.6375 1.0425-1.0125 1.0425a1.1322 1.1322 0 01-.8925-.57 2.4514 2.4514 0 01-.24-.435 17.114 17.114 0 003-4.545l.2475-.5025c-.51 2.52-.9749 4.5675-1.095 5.0175zm.0824-4.89a18.965 18.965 0 01-2.565 4.0575c-.1725-.495-.3525-1.0875-.5324-1.74v-.0451a21.578 21.578 0 004.905-6.645 28.393 28.393 0 01-1.8 4.38zm2.5276-8.745a22.118 22.118 0 01-5.8876 10.072c-.525-2.0775-1.0424-4.56-1.4474-6.6825s-.75-3.9975-.75-4.5a11.414 11.414 0 003 4.905l.5625-.645a8.1443 8.1443 0 01-1.5-1.7925 5.16 5.16 0 001.3875.18 5.8952 5.8952 0 003.855-1.2975l-.6075-.6075a5.16 5.16 0 01-3.2475 1.05 3.0825 3.0825 0 01-2.1225-.6675 9.2124 9.2124 0 01-.63-1.74l.2925.2475a4.8455 4.8455 0 003 1.035 5.0478 5.0478 0 003.465-1.395c.255-.24.4875-.495.675-.675l.09-.0825v.4575a18.821 18.821 0 01-.1275 2.145zm-11.618-2.76c-.75 4.4025-1.5 11.25-4.6425 17.01l.75.4125c3.27-5.94 4.0275-12.922 4.74-17.288zm.9075 9.0825c-.135 3.6075-.5925 7.2375-2.01 8.8425l.6525.5625c1.6951-2.01 2.055-5.7225 2.25-9.375s.06-7.26.5475-8.745l-.8175-.27c-.6 1.815-.465 5.3625-.6225 8.985zm3.8326-96.255-.8325-1.335-.84 1.335.8325 1.335zm22.185-14.032-1.89-.5625-.6225 2.0925-2.0925-.6225-.5625 1.875 2.0925.6225-.6225 2.1 1.89.5625.6225-2.0925 2.0925.6225.555-1.89-2.0925-.6225zm12.712 57.338-.8325-1.305-.8325 1.335.8325 1.335zm37.62 1.4175.0675.5475-4.86.63a.4724.4724 0 01-.4575-.1873h-.06a10.627 10.627 0 01-.8325 1.9948l1.5 1.095.165-.2251c-.525-.3375-.375-.6 0-1.3575l4.7775-.6225.1425 1.0875.69.2174-.18-1.3875 2.0475-.27v-.1426a5.1229 5.1229 0 01-2.655-1.44zm.9675-13.432-1.74-.6525a5.3377 5.3377 0 01-.495.27 13.941 13.941 0 001.5825 1.05 3.5244 3.5244 0 00.6525-.675zm-46.838 47.752v.75l1.9574-1.2825.8176 1.0275-2.25 1.74.405.6075 2.3475-1.7925.5475.6375-.8925.75.48.48 1.5-1.185-.6975-.8175 1.2975-1.185-.57-1.755.42-.285v-.4575h-1.2l.6675 2.25-.435.345-.8025-.9975v-2.1225h-1.83v.63l.405.4575-.405.3-1.2375-1.3875h-.57v.36l1.545 1.815zm-.2776-35.775.8325 1.335.8325-1.335-.8325-1.335zm46.89 6.9075-5.0025.2475c-.405 0-.4575-.21-.4575-.21h-.0674l-.8775 1.3125 1.0425.975h.06a1.23 1.23 0 01.255-.69l5.1-.2475a.4427.4427 0 01.39.18h.0675l.945-1.275a5.5318 5.5318 0 01-1.0575-.9975h-.06s.0675.6825-.345.705zm-7.995-14.077h-.06a10.629 10.629 0 01-.5475 2.0924l1.62.8776.135-.2475c-.57-.2551-.4574-.54-.2325-1.335l4.6425-1.29.2925 1.0575.75.1125-.375-1.35 1.9875-.555-.0375-.1426a5.16 5.16 0 01-2.8274-1.05l-.2625.0751.15.5325-4.725 1.305a.4649.4649 0 01-.51-.0825zm1.875 8.8124h.06c-.06-.3 0-.75.1125-.75l5.145-1.0275a.45.45 0 01.4649.15h.06a12.364 12.364 0 01.21-1.86c-.915-.36-1.14-2.1675-2.3926-1.92l-4.1174.825a.4428.4428 0 01-.4126-.12h-.0674l-.69 1.6575 1.08.885-.6448 1.3576a7.1925 7.1925 0 011.2.81zm-.1949-3.285 5.07-1.0124a4.6 4.6 0 00-.15 1.2375l-4.7175.9525-.48-.405zm3.6075 16.268a.435.435 0 01.375.21h.075l.6975-1.4175 1.95 1.3725a7.1908 7.1908 0 011.2225-1.635 12.589 12.589 0 01-.975-2.3475l-2.1225-.0525a.4574.4574 0 01-.4125-.2474h-.06l-.9075 1.59-2.445-1.6875a6.25 6.25 0 01-.96 1.83 11.447 11.447 0 011.1925 2.34zm1.1924-2.5126 2.3025.0525.0525.1049a10.719 10.719 0 00-1.2675 1.5975l-1.5-1.1175zm-3.975.9375a9.7462 9.7462 0 00.9976-1.6875l1.9574 1.3275-.3075.6-2.5425-.06zm-20.122-11.715.8324-1.335-.8324-1.335-.8325 1.335zm-56.715 84.225a3.6087 3.6087 0 00.2624.9l1.4175-1.2075v-.57a14.202 14.202 0 00-1.6725.8775zm49.02-85.56.8325 1.3351.8625-1.3352-.8324-1.335zm-49.95 82.26c.0525-.285.8625-4.5.945-4.92s.315-.3974.315-.3974v-.0675l-1.0725-1.1625-1.17.81v.06a1.2292 1.2292 0 01.6149.405s-.9074 4.7475-.96 5.01a.435.435 0 01-.2624.3375v.0675l1.02 1.2225a5.592 5.592 0 011.2149-.7951v-.0524s-.75-.1049-.6449-.5175zm9 1.2075s.375-4.5749.405-4.89a.4649.4649 0 01.2775-.405v-.06l-1.725-1.3575-2.4225 1.3273-.4425 5.2875a.4349.4349 0 01-.2325.3675v.0675c1.3275 1.05 2.415 1.995 3.75 3.2025a5.4234 5.4234 0 011.125-.9975v-.06a11.967 11.967 0 01-2.25-1.74zm-2.5425-.1275.4725-5.6925h.0375l1.08.8025-.45 5.4225-.3225.1726zm-4.425-6.2775v.0524a1.2154 1.2154 0 01.63.3825s-.69 4.785-.75 5.0475a.45.45 0 01-.255.3525v.0675l1.065 1.17a5.5446 5.5446 0 011.1775-.84v-.06s-.7125-.0825-.6525-.495c0-.285.66-4.5525.75-4.95s.3-.4125.3-.4125v-.0675l-1.1175-1.1175zm12.915 1.29a.4426.4426 0 01.195-.39v-.0674l-1.71-.99a22.178 22.178 0 01-2.3775 1.6275s.045 4.6575.045 4.965a.465.465 0 01-.2325.4275v.06l1.0875.8625.9525-.9525v-.0451l-.4425-.3225-.0525-5.5875.2025-.1275.99.6075s.045 4.5374.045 4.95-.2325.45-.2325.45v.0674l1.2825.93.99-1.0275v-.0524a1.2224 1.2224 0 01-.675-.2851s-.045-4.8225-.045-5.0925zm23.25-5.25-.2475-.1576-.3525.5325a3.5026 3.5026 0 01-2.67 1.5l-3.75-.0524a3.2328 3.2328 0 01-.1275 2.0025h1.8375l-.3075.465a3.8625 3.8625 0 01-3.1725 1.7775h-2.1a1.7248 1.7248 0 01.1574.855c0 .75-.3224.915-.3224.915h1.74a2.3783 2.3783 0 001.11-.3 4.8456 4.8456 0 00-1.0276 2.5275v.87a5.8351 5.8351 0 012.16-.1874v-1.74a6.2758 6.2758 0 01.66-3l1.4549-2.175a4.9877 4.9877 0 002.685-.75v3.69a2.4972 2.4972 0 01-1.545.75h-1.89a4.7294 4.7294 0 010 1.6425 3.6742 3.6742 0 001.9725-.3676 5.2528 5.2528 0 00-.0675 1.5826 3.352 3.352 0 011.6275 0v-2.25a3.1746 3.1746 0 01.15-1.14h2.07v-.345c-.4125 0-.57-.3375-.6225-1.23v-1.665a6.73 6.73 0 01.6-3.5625zm-13.2 7.0125v-.06l-1.71-.6375 1.275-2.6849a6.2793 6.2793 0 01-1.965-.66 11.712 11.712 0 01-2.115 1.5525l.3225 2.3625a.4353.4353 0 01-.1425.405v.0751l1.5.4651-1.0425 2.1371a7.03 7.03 0 011.8.945 12.498 12.498 0 012.1675-1.35s-.2475-1.7925-.2925-2.1075a.465.465 0 01.2625-.405zm-2.895-.48-.3451-2.5125.15-.1275a10.152 10.152 0 001.83.7125l-1.005 2.145zm1.5825 3.48a10.934 10.934 0 00-1.7775-.9975l.855-1.6875.705.3375.3225 2.25zm-4.62-.06s-.2625-4.5826-.285-4.8976a.45.45 0 01.21-.435v-.06a10.862 10.862 0 01-1.845-.93l-1.1925 1.395.2025.1876c.3825-.51.63-.3375 1.3575.0524l.2775 4.815-1.1025.06-.2625.675 1.4025-.0752.1125 2.055h.15a5.1078 5.1078 0 011.62-2.5425v-.27zm31.972-131.25.4725-.75-.75-.4875-.4725.7125-.7125-.4725-.4875.75.75.4725-.48.75.75.4875.4725-.7125.7125.4725.4875-.75zm23.858 39.997a1.2526 1.2526 0 010-.75l4.77-1.8075a.4427.4427 0 01.4275.0524h.0675l.5025-1.5a5.5018 5.5018 0 01-1.305-.6225h-.0525s.2775.6675-.12.8175l-4.635 1.74c-.3825.1426-.5025-.06-.5025-.06h-.0675l-.4275 1.5 1.2975.57zm.9075 53.25a2.8954 2.8954 0 00.2475-1.62 4.3178 4.3178 0 01-2.1225 0v2.0625a3.8783 3.8783 0 01-.285 1.755 15.946 15.946 0 01-1.8525 0l.075 3.8175a4.1028 4.1028 0 01-.57 2.4h-2.4075a4.2747 4.2747 0 00-2.5425.75 6.75 6.75 0 00.8475-3.09v-2.3551a2.7231 2.7231 0 011.5-.5925h1.785a5.6116 5.6116 0 010-1.92 4.5987 4.5987 0 00-1.5.1576 2.9252 2.9252 0 00.2475-1.62 4.3719 4.3719 0 01-2.13 0v2.0625a3.33 3.33 0 01-.315 1.8075l-.0375.0525a1.74 1.74 0 01-1.4475.495v3.27a9.0206 9.0206 0 01-.3 3.285l-1.1025 1.6575.2625.15a4.0979 4.0979 0 013.3525-2.205h4.995a2.5948 2.5948 0 01.1875-1.86h-.975a10.413 10.413 0 001.035-1.1175 3.0523 3.0523 0 011.83-.8475h1.815a5.5326 5.5326 0 010-1.92c-1.3275 0-1.8225.1049-2.5575.96a3.0534 3.0534 0 00.18-.99v-2.13a2.685 2.685 0 011.5-.5925h1.7775a5.6217 5.6217 0 010-1.92 4.6276 4.6276 0 00-1.4775.0975zm-4.875-63.967 4.305-2.34.3.0824a8.9306 8.9306 0 01-.8325 1.5751v.06a5.1675 5.1675 0 011.4025.2624h.0675l.75-1.6724-1.275-.4576.315-1.41a7.1572 7.1572 0 01-1.38-.435h-.0525c.1425.27.21.6975.105.75l-4.425 2.4075a.4725.4725 0 01-.4875 0l-.075.075a11.155 11.155 0 01-.06 2.16l1.7775.4875.075-.2625c-.585-.135-.54-.45-.4949-1.2825zm12.968 39.397a2.5652 2.5652 0 00.24-1.5 3.9008 3.9008 0 01-1.9125 0v1.845a3.3979 3.3979 0 01-.2625 1.59 3.8857 3.8857 0 01-2.07.5775v.33c.435 0 .63.7125.63 1.14v.6374c0 .9975 0 2.88-.4125 3.5175l-.5625.8925-2.7075 4.0875-1.5 2.25v-5.1975l.705-1.065a2.7 2.7 0 011.62-.75h1.23a4.9282 4.9282 0 010-1.74 5.2039 5.2039 0 00-.8925.0524 2.8428 2.8428 0 00.2625-1.62 4.3122 4.3122 0 01-2.0925 0v2.025a3.8853 3.8853 0 01-.27 1.71l-.6675 1.005a3.0016 3.0016 0 01-2.34.705v.3375c.4425 0 .6375.705.6375 1.14v5.0175c0 .9975 0 2.88-.42 3.5175-.195.3075-.5925.8775-.5925.8775l.2325.1426s.51-.69 1.11-1.5975l.1725-.27a4.38 4.38 0 013.3525-1.8675h1.7925a1.9271 1.9271 0 01.6375-1.575c-2.1375 0-3.4575-.2551-4.71 1.3275l-.1275.1876a5.59 5.59 0 00.315-1.8075l.3524-.5325a4.9126 4.9126 0 013.75-2.025h2.0325a2.1755 2.1755 0 01.705-1.77 2.3709 2.3709 0 011.3425-.525h1.56a4.92 4.92 0 010-1.68 4.0118 4.0118 0 00-1.3275.1425 2.5349 2.5349 0 00.225-1.4175 3.8236 3.8236 0 01-1.86 0v1.8075a2.9257 2.9257 0 01-.27 1.5825l-.0525.0675c-1.6725 0-2.8875-.1049-3.96.6l2.0175-3.045.1125-.1723.8325-1.26.12-.18v-.06l.1425-.21a2.8648 2.8648 0 011.77-.84h1.9575a5.5093 5.5093 0 010-1.8825c-1.4325 0-2.07.12-2.9475 1.2225a6.0756 6.0756 0 00.4575-2.25v-1.5a3.4952 3.4952 0 011.77-.5625h1.185a5.0266 5.0266 0 010-1.725 4.0525 4.0525 0 00-1.3125.2925zm-15.322-43.838 1.5-.945a16.966 16.966 0 012.91.84h.06l1.185-2.295a12.558 12.558 0 01-2.1975-1.38l-4.2375 2.7225a.4726.4726 0 01-.48 0h-.0525a14.071 14.071 0 01.1425 2.655l1.8225.36v-.2775c-.6075-.0525-.57-.5926-.6525-1.68zm4.35-2.7975-.9825 1.995s-.8775-.2325-1.5-.375zm2.9175 13.05a.4577.4577 0 01.435 0h.0674v-1.5825l2.3476.42a7.22 7.22 0 01.42-2.0025 12.463 12.463 0 01-1.8824-1.7175l-1.95.855a.4652.4652 0 01-.48-.0525h-.06l-.15 1.8225-2.9325-.495a6.157 6.157 0 01-.0975 2.07 11.686 11.686 0 012.07 1.6125zm0-2.775 2.1074-.9225.09.075a11.045 11.045 0 00-.48 1.9875l-1.8524-.3675zm-3 2.64-.1726-.12a9.9979 9.9979 0 00.195-1.9575l2.3325.39v.6675zm-6.8776 37.29h-.8624v.69h-.705v.8625h.69v.69h.8625v-.69h.6975v-.8625h-.69zm19.883-16.972s-.4275.0975-.5551.1049a14.379 14.379 0 001.1776 1.5 3.4868 3.4868 0 00.8324-.435zm-74.032-73.5a78.652 78.652 0 1078.638 78.668v-.015a78.652 78.652 0 00-78.652-78.63zm8.4675 17.378q1.0125.135 2.025.315v4.5l-2.025-3.105zm2.715 117.98-.75.69v.8625h.855v.8775h-.855v.8625h-.9v-.855h-.855v-.87h.855v-.8625l-.75-.69h-2.625l-.75.69v.8625h.8625v.8775h-.8625v.8475h-.87v-.855h-.855v-.87h.855v-.855l-.75-.6975h-2.5425l-.75.6975v.855h.855v.8775h-.855v.8475h-.8775v-.855h-.855v-.87h.855v-.8625l-.75-.69h-2.61l-.75.6975v.855h.825v.8775h-.855v.8475h-.8775v-.855h-.855v-.87h.855v-.8625l-.75-.69h-2.6025l-.75.6975v.8549h.8625v.8775h-.8625v.8475h-.915v-.855h-.8475v-.87h.8475v-.8475l-.75-.7049h-7.5c.3.3 2.6175 2.3475 3.8025 3.3975a61.661 61.661 0 01-6.1125-1.8451v-1.1025l.48-.4275 1.5-1.3124h13.44a2.1747 2.1747 0 001.2825.75h.24a4.3443 4.3443 0 00.855-.0975 2.3183 2.3183 0 00.75-.2475 6.886 6.886 0 00.6075-.39h6.1725a4.1288 4.1288 0 00.3525.3 2.9035 2.9035 0 001.7325.585 3.0006 3.0006 0 001.455-.3825 1.0578 1.0578 0 00.4125-.51h10.695l1.9275 1.6875v1.1925l-.4275.1724q-2.79.975-5.6925 1.6875l3.33-3.42zm.9 4.0425a62.205 62.205 0 01-24.27 0zm-18.158-105.45v3.795h-7.56v-3.795zm-4.5-.8625v-6.1875a.9294.9294 0 01.3075-.66 1.1022 1.1022 0 01.75-.2925.9676.9676 0 01.975.9525v6.1725zm2.895-6.1875a1.1094 1.1094 0 01.2475-.75.66.66 0 01.5025-.255.8179.8179 0 01.5775.2775 1.0282 1.0282 0 01.2775.6975v6.1725h-1.605zm7.605 7.0275h4.7325v3.795h-9.4125v-3.7725zm-4.68-.8625v-6.165a.9225.9225 0 01.795-.975.75.75 0 01.5475.27 1.05 1.05 0 01.27.705v6.1725zm2.4675 0v-6.165a.915.915 0 011.83 0v6.1725zm2.7 0v-6.165a.8925.8925 0 111.7775 0v6.1725zm-.4275 29.602h-.06a12.745 12.745 0 00-2.64.2925l2.685-4.1175 2.7 4.125a12.894 12.894 0 00-2.685-.2775zm2.205 1.08v4.6125a9.7482 9.7482 0 00-1.7925-.24v-4.575a12.071 12.071 0 011.7925.2174zm-2.655-.21v4.6124a9.884 9.884 0 00-2.0325.3076v-4.65a12.115 12.115 0 012.0325-.2475zm.4275-6.27-3.93 6a7.8736 7.8736 0 00-.75.285v-1.5675l4.7175-7.23 4.695 7.17v1.6725c-.2475-.0975-.495-.1873-.75-.27zm0-6.5626 4.695 7.11v2.5351l-4.6875-7.2-4.7175 7.23v-2.415zm-4.725-6.51a1.035 1.035 0 01.99-.9075.9825.9825 0 01.945.975v9.1575l-1.935 3zm4.305 1.14v3.39h-1.5v-4.4324a1.08 1.08 0 01.54-.8925 2.25 2.25 0 01.9975-.3525v.9375a.825.825 0 000 1.41zm-.21 4.74-1.32 2.025v-2.79a3.87 3.87 0 001.32.7651zm1.05-6.12v-.93a2.25 2.25 0 01.9375.345 1.0878 1.0878 0 01.51.9225v4.455h-1.4475v-3.39a.8251.8251 0 000-1.4025zm1.4475 5.355v2.7226l-1.2975-1.965a3.8634 3.8634 0 001.3275-.7575zm.8625 4.0276v-9.045a.9974.9974 0 01.96-.975 1.0125 1.0125 0 01.975.9225v12.038zm.39 10.628a12.191 12.191 0 011.77.63v4.8075a9.9723 9.9723 0 00-1.77-.75zm1.605-30.878h-1.605v-6.1875a1.1094 1.1094 0 01.2475-.75.66.66 0 01.5025-.255.8253.8253 0 01.5775.27 1.0123 1.0123 0 01.2775.69zm0 5.52v4.14a1.8525 1.8525 0 00-.975-.285 1.83 1.83 0 00-1.3725.645 2.0715 2.0715 0 00-.465-.4425 3.1352 3.1352 0 00-1.4325-.51v-.48h.75v-.8625h-.75v-.75h-.8625v.75h-.75v.8625h.75v.4725a3.1875 3.1875 0 00-1.5.5175 2.1463 2.1463 0 00-.465.435 1.8 1.8 0 00-1.3575-.645 1.8834 1.8834 0 00-.99.2925v-4.14zm-8.0475 25.418v4.6875a9.8552 9.8552 0 00-1.7325.825v-4.8525a11.941 11.941 0 011.7325-.66zm3.345 4.965a9 9 0 016.3225 2.595 8.5875 8.5875 0 012.6175 6.105c0 3.39-2.055 6.1725-5.25 7.86a2.0991 2.0991 0 01.0525-.5625 11.046 11.046 0 011.26-3.1575 1.2527 1.2527 0 001.14-.495 1.1928 1.1928 0 00.045-1.155 1.3726 1.3726 0 00.93-1.0275 1.1623 1.1623 0 00-.84-1.2975 1.215 1.215 0 00.2026-1.2525 1.2374 1.2374 0 00-1.3275-.7125s.1424-.525-.5251-.9225-1.035-.1726-1.035-.1726a.9821.9821 0 00-.555-.5175 1.588 1.588 0 00-.8025-.06 1.11 1.11 0 00-.615-.3076 1.1931 1.1931 0 00-.75.1049 1.1855 1.1855 0 00-1.785 0s-.1275-.1873-.6225-.18a.8852.8852 0 00-.75.3825.9079.9079 0 00-.7876 0 1.1252 1.1252 0 00-.57.615s-.3225-.285-1.0425.1577a1.0423 1.0423 0 00-.5175.9375 1.2074 1.2074 0 00-1.17.4574 1.2449 1.2449 0 000 1.4326 1.0949 1.0949 0 00-.8175 1.1924 1.3425 1.3425 0 00.9525 1.2 1.6348 1.6348 0 00.1275 1.1325 1.38 1.38 0 001.1925.4949c.09.3451.66 2.6176.75 3.5176-.555-.36-.9825-.66-.9825-.6676a8.3323 8.3323 0 01-1.2675-13.11 9 9 0 016.42-2.595zm18.54-24.195v-.75h-.8625v.75h-.75v.855h.75v2.5125l-2.1525 3.27v-16.605l5.04 7.6275v8.8125l-2.0325-3.0975v-2.52h.75v-.8625zm-.4425 4.2825 2.46 3.75v2.175a1.95 1.95 0 00-2.5125.39 1.9278 1.9278 0 00-1.5-.6825 1.9724 1.9724 0 00-1.0575.315v-2.025zm2.46 7.365v20.122l-2.0775-3.165v-16.852a1.0576 1.0576 0 011.065-.9675 1.035 1.035 0 011.0275.8625zm-5.04.1049a1.0425 1.0425 0 011.0575-.975 1.02 1.02 0 011.0275.9675v16.86l-2.0925 3.1875v-20.04zm2.52 17.752 2.52 3.84v7.35a1.8752 1.8752 0 00-1.005-.3 2.0175 2.0175 0 00-1.5.705 2.0776 2.0776 0 00-1.5-.705 1.9571 1.9571 0 00-.9825.27v-7.305zm.4275 52.852v-19.252h2.0925v13.5l-2.01 3.5775v2.19zm.075 4.5975v.9825h-.585a1.3773 1.3773 0 00.1574-.1727 3.2491 3.2491 0 00.4425-.81zm-.075-25.792v-18.938a.9293.9293 0 01.3225-.675 1.1545 1.1545 0 01.75-.3.9823.9823 0 01.99.9749v18.938zm-1.9725-19.912a1.185 1.185 0 01.75.3.9.9 0 01.33.6675v18.938h-2.0926v-19.178a.96.96 0 011.0275-.7275zm1.125 21.855v18.472l-.2776-.2475a7.8241 7.8241 0 01-1.7475-2.085v-.0451l-.06-.0674v-16.028zm-.8551 18.862c.6375.585 1.2675 1.095 1.605 1.425a28.544 28.544 0 01-.4875 2.8425 2.7129 2.7129 0 01-.4275.9675.6224.6224 0 01-.5324.2775.7048.7048 0 01-.5775-.2775c-.5175-.5625-.6225-2.25-.6075-3.045v-.8025a6.106 6.106 0 01-2.3625-1.3575c-.855-.8625-1.725-2.4-2.175-5.3775-.1575-1.0275-.3225-3.3075-.5775-5.595a24.603 24.603 0 00-1.1175-5.82l-.7875.345a24.173 24.173 0 011.0425 5.565c.255 2.25.42 4.5.585 5.625.4649 3.09 1.395 4.83 2.415 5.85a5.8405 5.8405 0 002.1525 1.3575 6.1324 6.1324 0 00-.6975.855 22.125 22.125 0 01-1.6876 2.1675 2.8643 2.8643 0 01-1.8075 1.11 1.2525 1.2525 0 01-.915-.4575 6.0673 6.0673 0 00-4.23-2.13 4.1032 4.1032 0 00-2.7825 1.1175 2.1748 2.1748 0 01-1.4325.6375 2.5651 2.5651 0 01-1.7625-.885 6.3191 6.3191 0 00-.69-.645 4.0794 4.0794 0 00-1.155-.795 3.8087 3.8087 0 00-1.245-.2251 4.0883 4.0883 0 00-1.575.315 9.8349 9.8349 0 00-2.6775 1.77 3.1572 3.1572 0 01-2.0175.87 2.6624 2.6624 0 01-2.07-1.1325 4.6053 4.6053 0 00-1.0875-1.14 1.77 1.77 0 00-.96-.2775 140.5 140.5 0 004.41-13.358c.39-1.5825.75-3.1725 1.17-4.725a6.5047 6.5047 0 012.145-3.75 5.152 5.152 0 011.6875-.3225 2.361 2.361 0 01.825.1276 15.736 15.736 0 012.43 1.395 5.8064 5.8064 0 002.8575 1.08 11.922 11.922 0 004.5-1.3725c.1725-.0825.375-.1951.5925-.3225a6.32 6.32 0 00.75-.36l.21-.12a2.932 2.932 0 011.1925-.285 1.9773 1.9773 0 01.6975.12 1.7851 1.7851 0 01.75.8024 20.054 20.054 0 011.665 5.4825c.3225 1.86.8025 4.8376 1.425 7.1625a11.127 11.127 0 00.8475 2.0625 6.88 6.88 0 00.51.8325l.09.1126a8.694 8.694 0 001.89 2.3325zm-.915 5.97h-3a11.948 11.948 0 001.0275-1.14c.4126-.525.75-1.05 1.095-1.5a7.3625 7.3625 0 00.195 1.275 3 3 0 00.57 1.1925 1.3067 1.3067 0 00.1125.1726zm-6.9375 0h-.6224a4.5985 4.5985 0 00-.2849-.75 7.4151 7.4151 0 01.8925.75zm-2.205-1.245a3.8846 3.8846 0 01.84 1.9575.5913.5913 0 01-.075.33v.0525a2.1229 2.1229 0 01-1.005.2551 2.0254 2.0254 0 01-1.23-.42 4.7685 4.7685 0 01-1.1625-1.3425 5.7148 5.7148 0 01-.285-.525 3.15 3.15 0 011.86-.6225h.0675l.6 1.68.81-.285zm-3.4125 1.245h-.9449a3.3647 3.3647 0 00.75-.3975.8783.8783 0 00.18.3975zm-2.8575 0h-1.59c0-.2775.045-.5925.06-.915v-.1425l.1275.1125a4.1462 4.1462 0 001.3875.945zm-3.24.27.6975-2.1076.18.1049v.75a9.8027 9.8027 0 01-.1125 1.2675.8766.8766 0 01-.315.345 6.4445 6.4445 0 01-.54.3525 2.0561 2.0561 0 01-.4425.1276 3.61 3.61 0 01-.6825.0824h-.135a1.6351 1.6351 0 01-.93-.6975 1.0509 1.0509 0 01-.15-.615 3.4658 3.4658 0 01.6975-1.965.9282.9282 0 01.12-.1275 2.8642 2.8642 0 01.51-.1276h.3675a2.36 2.36 0 01.4425.0525l.24.0751-.75 2.25zm-3.3225-.27h-1.6875a5.8363 5.8363 0 00.66-.48 14.14 14.14 0 011.275-.975 4.1033 4.1033 0 00-.255 1.3575s-.0073.0675-.0073.0975zm-12-4.965a27.102 27.102 0 004.635-6.315 46.044 46.044 0 003.225-8.7675 6.66 6.66 0 012.0551-3.45 11.68 11.68 0 00-.8851 2.3625c-.4425 1.5825-.75 3.1725-1.17 4.7475a135.24 135.24 0 01-4.7324 14.115 12.428 12.428 0 00-.6225 1.095 1.5 1.5 0 01-.9375.75.7447.7447 0 01-.1875 0c-.285 0-.6225-.2324-.9225-1.0274a10.845 10.845 0 01-.48-3.51zm.315 4.965h-.75v-1.5q.0525.1874.12.375a3.0022 3.0022 0 00.615 1.125zm2.25-24.802v15.3a26.491 26.491 0 01-2.0925 2.8275v-18.158zm-2.0925-1.9725v-18.938a.9149.9149 0 01.315-.675 1.17 1.17 0 01.75-.3 1.005 1.005 0 011.0125.9375v18.975zm2.0926-29.385-2.1225-3.1725v-16.852a.99.99 0 011.0046-.9752h.0079a1.155 1.155 0 01.75.3.9224.9224 0 01.315.6675zm8.3475 8.145a1.6575 1.6575 0 011.65 1.5975l-.4875.1576.12.405a.7516.7516 0 010 .2251c0 .27-.1575.36-.39.3825a.4575.4575 0 01-.45-.3525l-.045-.135v-.18h.69v-.8624h-.69v-.69h-.8624v.69h-.69v.8624h.69v.1577l-.9525.3225a1.6347 1.6347 0 01-.2775-.9075 1.6649 1.6649 0 011.6574-1.6725h.0151zm-.0825-.435v-.4275c.1425.1576.2925.3075.45.4575a2.0692 2.0692 0 00-.3675 0zm2.25 2.82v-.0525l.4275-.1425 1.0425 2.9325-.3675.1349a1.245 1.245 0 00-1.0425-.555 1.35 1.35 0 00-1.3575 1.3125l-.465.1576-1.0125-3 .4425-.1426a1.3124 1.3124 0 001.08.5625 1.2742 1.2742 0 00.855-.3225 1.215 1.215 0 00.3825-.885zm-.2475-1.5375.66.4425-.5175.1426a2.1054 2.1054 0 00-.1575-.585zm9.1425-3.795h-.45a2.8418 2.8418 0 01-.33.75c-.21.3375-.2175.2174-.6075.75a3.7484 3.7484 0 00-1.29-.6825v-.75h-.3675v.75h-.2175v-.18h-.285v.3a.2625.2625 0 01-.5175 0v-.33h-.2775v.21h-.225v-.7875h-.4125v.75a3.3517 3.3517 0 00-1.155.585 1.8224 1.8224 0 01-1.1775-1.44h-.255a14.993 14.993 0 01-.6675-2.5275c.27-.24.9825-.9075.9525-1.2375a1.1323 1.1323 0 00.75.3 1.253 1.253 0 00.99-.5175 1.2676 1.2676 0 001.71-.3c.2025.2024.4275.525.81.525a2.8276 2.8276 0 00.9-.2174 1.14 1.14 0 00.99.5175c.6975 0 .75-.3.75-.3s.8625.8925 1.2 1.2225a16.26 16.26 0 01-.8175 2.61zm1.2075 5.25v.63q-.51-.6675-1.0125-1.2825c.3525-.18.6825-.3825 1.0125-.5925a2.1038 2.1038 0 00-.09.615 2.1551 2.1551 0 00.075.6zm-.4425 1.5a7.76 7.76 0 01-.99.8925 2.6853 2.6853 0 00-1.1925 1.8675 1.3258 1.3258 0 000 .2551 12.762 12.762 0 00.6225 1.68c.5175 1.23 1.275 2.9325 2.0025 4.395.36.75.75 1.395 1.035 1.92a3.4271 3.4271 0 00.8926 1.11 2.6862 2.6862 0 001.05.615c1.1175.3375 1.995.57 2.4526 1.545l.75-.36c-.6525-1.38-1.935-1.6875-3-2.01l-.1125-.0451v-.21a21.33 21.33 0 01.3675-3.0676l-.8475-.15a25.512 25.512 0 00-.3675 2.7825 3.2426 3.2426 0 01-.3525-.555 10.764 10.764 0 01-.84-3.75c-.12-1.38-.135-2.6925-.2775-3.5475l-.8475.1426c.15.855.15 2.535.345 4.2074-.195-.4125-.39-.8325-.5775-1.245-.3975-.8775-.75-1.725-1.0275-2.3774a12.513 12.513 0 01-.45-1.2075.6125.6125 0 010-.1049c0-.3225.3525-.75.885-1.2075a11.655 11.655 0 00.96-.84c3.27 4.455 6.555 10.095 7.185 12.802a3.4018 3.4018 0 01.0525.6226 3.6225 3.6225 0 01-1.5 2.8125 6.3042 6.3042 0 01-.75.51v-.33a3.045 3.045 0 00-.54-1.8526 3.1182 3.1182 0 00-.69-.63 3.93 3.93 0 00-1.965-.8024h-.3149a.8576.8576 0 01-.4575-.315c-.8175-.8925-1.845-3.5175-2.67-6.1726-.75-2.4374-1.395-4.9424-1.7175-6.3a7.4982 7.4982 0 00.8775-.4424 1.8382 1.8382 0 00.825-1.0876 3.985 3.985 0 00.1275-.81 12.944 12.944 0 011.0422 1.2227zm2.445-3.75a1.6575 1.6575 0 11-1.6575 1.6575 1.6575 1.6575 0 011.62-1.6946h.0229zm-.1425-.4275c.09-.09.1875-.1726.2775-.27v.2625h-.2775zm2.595-16.192v7.26a9.4645 9.4645 0 00-1.5-3.1575v-5.6025a13.742 13.742 0 011.4999 1.5zm-1.4175-2.5875 1.4175-2.205v3.5025a14.506 14.506 0 00-1.4175-1.275zm1.4175 21.54v7.0875c-.4725-.75-.975-1.575-1.5-2.3625v-3.6075a2.1 2.1 0 000-3.69v-1.5a9.0816 9.0816 0 001.5-3.0825v5.7075a2.055 2.055 0 000 1.5zm-2.3325 1.35v2.115c-.42-.615-.8475-1.215-1.275-1.8v-.6525a2.0548 2.0548 0 001.14.3375zm4.3875 17.482a4.41 4.41 0 001.6575-3.285 4.5005 4.5005 0 00-.0674-.75 14.329 14.329 0 00-.8176-2.3025v-11.25a2.1 2.1 0 001.2226-1.7925v19.455zm1.995 1.9725v10.328c-.2925-1.5-.54-3-.75-4.0875a28.194 28.194 0 00-.945-3.8775 10.095 10.095 0 00-.8175-1.8975 5.1435 5.1435 0 00-.3225-.48zm-3.1875-40.065v-4.5l3.1875 4.8525v6a17.85 17.85 0 00-3.195-6.3225zm3.1875 12.562v5.8425a2.0926 2.0926 0 00-1.2225-1.7925v-11.25a22.035 22.035 0 011.215 7.2225zm-2.085-9.255v13.11a2.0924 2.0924 0 00-1.1025.315v-15.3a15.996 15.996 0 011.1025 1.875zm-1.1025-9.3975v-3l3.18 4.8975v3zm0-4.545v-5.2875a1.5451 1.5451 0 011.56-1.5 1.6051 1.6051 0 011.6275 1.5v10.162zm1.56-7.7025a2.4374 2.4374 0 00-2.025 1.08 2.5951 2.5951 0 00-2.1075-1.08 2.7824 2.7824 0 00-1.77.6525l3.9675-6.0075 3.555 5.4225v.5775a2.55 2.55 0 00-1.6275-.615zm-.4575 35.198a2.2523 2.2523 0 10-.0075.03zm0 3.75v9.225c-.3375-.6525-.705-1.335-1.1025-2.04v-7.5a2.0779 2.0779 0 001.1024.315zm-4.4025 17.775-3 1.8225a1.4481 1.4481 0 01-.2475-.1276l3.0825-1.9875-.465-.75-3.195 2.0625a1.4028 1.4028 0 01-.09-.435l3.165-1.8975-.4425-.75-2.3775 1.425a2.1756 2.1756 0 01.75-.75c.2325-.1349.2625-.1426 2.685-1.695h.09a5.3051 5.3051 0 011.41.6075 2.4747 2.4747 0 01.855 1.8675 1.8739 1.8739 0 01-.075.5625l-1.9125 1.17a8.25 8.25 0 00-.93.4876 4.4614 4.4614 0 01-.75.24l1.905-1.1475zm-7.4475.75h-.255a2.19 2.19 0 01-1.9875-2.13 2.1225 2.1225 0 012.295-2.2725 3.1105 3.1105 0 01.495.0451l.2625.045.1575-.225a1.89 1.89 0 011.6275-.8775 2.9993 2.9993 0 011.3575.3525 2.0023 2.0023 0 011.035 1.68l-.3075.195v-.0451a1.8 1.8 0 00-.75-1.4325 1.8305 1.8305 0 00-1.14-.405 2.0025 2.0025 0 00-1.845 1.23 1.7256 1.7256 0 00-.8925-.24 1.965 1.965 0 00-1.9425 1.62 2.2253 2.2253 0 000 .3225 1.77 1.77 0 00.555 1.3275 1.86 1.86 0 001.2675.48 2.0022 2.0022 0 00.3824 0 2.0175 2.0175 0 001.965 1.905 1.7762 1.7762 0 00.75-.15l.21-.1126a2.6429 2.6429 0 00.345.3075 2.5462 2.5462 0 01-.75.2475 3.3477 3.3477 0 01-.6075.06 2.1824 2.1824 0 01-2.1225-1.6125zm0 1.7475-.3825-.2324c-.405-.2475-.81-.5176-1.215-.75h.96a3.6771 3.6771 0 00.6525 1.05zm-11.19-24a1.6575 1.6575 0 11-1.6575 1.6575 1.6575 1.6575 0 011.6574-1.6575zm-.0675-.435v-12.855a16.198 16.198 0 011.2-2.07v15.285a2.0555 2.0555 0 00-1.1325-.3375zm1.2 3.855v8.565l-.66 1.23c-.195.3675-.375.75-.54 1.05v-10.5h.0675a2.0769 2.0769 0 001.1625-.3525zm-1.7025 14.348v-.0751a18.534 18.534 0 011.785-4.0875c.9-1.7025 2.04-3.69 3.2175-5.565l.9975 2.9325 1.9725-.69-.09-.3825a.616.616 0 010-.1726.465.465 0 01.4648-.4652h.0152c.18 0 .315.06.42.345l.135.4125c-.5024 1.4325-1.3125 3.4125-1.725 4.5a1.7038 1.7038 0 00-.3975-.0451 3.0976 3.0976 0 00-2.1449 1.17 28.18 28.18 0 01.9675-4.41l-.8025-.3076a34.495 34.495 0 00-1.3725 8.3175 3.9652 3.9652 0 00.15 1.275 1.65 1.65 0 001.5 1.23 3.9372 3.9372 0 002.25-1.05 4.4552 4.4552 0 01-2.67 2.1375 1.4548 1.4548 0 01-.4575.0675 4.5 4.5 0 01-2.835-1.545 4.8674 4.8674 0 01-1.5-3.0525 1.8446 1.8446 0 01.12-.54zm6.63-11.76a.48.48 0 01.495-.45c.18 0 .3075.0524.405.3525a.7548.7548 0 010 .1726.48.48 0 01-.4875.465c-.18 0-.3-.0524-.4125-.3525a.5614.5614 0 010-.1874zm.4125 1.395a1.3425 1.3425 0 001.35-1.3275l.4125-.15 1.02 2.8649-.225.0751-.2175.0676a1.275 1.275 0 00-1.05-.555 1.335 1.335 0 00-1.35 1.2975l-.4575.165-.9675-2.865.4425-.1576a1.2528 1.2528 0 001.0425.6075zm5.175-4.32h.405a2.6773 2.6773 0 002.25-1.425 9.0022 9.0022 0 01-.1425 1.3575.9527.9527 0 01-.465.6c-.255.165-.6375.3225-1.1025.5475l-.3075.15.075.3375c.0825.3675.2025.87.3525 1.4475a1.6579 1.6579 0 01-1.0575.3975 1.8674 1.8674 0 01-1.29-.3376c.1725-.57.315-1.0724.4125-1.4324l.105-.375-.36-.1426a2.85 2.85 0 01-1.7025-1.62 4.1165 4.1165 0 00-.135-.7125 4.8381 4.8381 0 010-.585 3.3076 3.3076 0 002.9775 1.7925zm-1.08-3.5175h2.025a1.035 1.035 0 01-2.025 0zm3.345 13.74c-.3525-1.6125-.7875-3.8025-1.1475-6.165l.24-.1276c.345 1.35.8025 3 1.305 4.59a20.017 20.017 0 01.675 4.6125 4.7 4.7 0 00-.465-.1275h.045s-.315-1.08-.6525-2.7825zm-1.1025-1.035a5.2528 5.2528 0 00-.3675-.5775 1.2523 1.2523 0 00-.93-.6075.6439.6439 0 00-.195 0l-.1575.0451c.105-.75.3225-2.49.3675-3.75h.345c.3 1.785.615 3.4725.9075 4.8825zm-2.9325-4.455.2475-.75a2.3244 2.3244 0 00.5475.2325c0 .69-.0975 1.545-.18 2.3025zm.36 3.6075-.36.1049-.6225-1.815.1275-.0374.2475-.0825zm-.36-6.5475c-.12.4275-.2775.9825-.465 1.59l-.39-1.1025-.6375-1.8a3.8694 3.8694 0 001.455 1.3125zm-.75 7.185a6.1088 6.1088 0 00-.66 1.0275 4.1169 4.1169 0 01-.75 1.11c.3225-.8325.75-1.9275 1.1325-2.9325zm-2.94 3.2925a19.154 19.154 0 00-1.4025 1.6725c-.3525.465-.69.93-.9675 1.335a9.2411 9.2411 0 01.09-.975c.6825-1.185 1.59-1.995 2.2275-2.0325zm1.9575 4.2225.0525-.0524v.21a3.4314 3.4314 0 000 .435 2.9245 2.9245 0 00.84 2.0475h-2.115a5.003 5.003 0 001.1775-2.64zm.3675-1.35c-.27.1877-.5175.36-.7125.51l-.2475.2024c-.045.06-.0825.0675-.135.1426-1.3875 1.3575-2.355 1.845-2.8125 1.8225-.3375 0-.5175-.1576-.75-.675a1.6929 1.6929 0 01-.075-.39c.345-.4425.945-1.35 1.665-2.31a8.61 8.61 0 012.37-2.415 3.3152 3.3152 0 001.3875-1.635c.3225-.615.6525-1.0875.9075-1.14l1.4025-.405a1.2465 1.2465 0 01.2625.2925l-.945.405.3375.795 1.0425-.4425a3.2705 3.2705 0 01.1425.3375l-1.0275.42.3224.795.99-.405a1.5429 1.5429 0 00.0976.3524l-.9525.3526.3.8024.8025-.3v.15a.9467.9467 0 01-.045.3375c-.465.1576-2.0175.9075-2.9325 1.395-.3375.2551-.9225.6375-1.4475 1.005zm7.335-2.505c.1275.285.255.5475.3825.8025a6.4934 6.4934 0 00.87 1.3275 2.7249 2.7249 0 00.3225.3075l-.375.24a2.79 2.79 0 00-1.1925-1.7925v-.3225s-.045-.345-.0525-.5625zm-.96 4.11a3.1787 3.1787 0 00-.3375.39l-.66-.0524-.3075.69.495.2775a2.9967 2.9967 0 00-.18.96 2.25 2.25 0 00.12.75l-.105.06a.96.96 0 01-.375.0751 1.102 1.102 0 01-.75-.345 1.08 1.08 0 01-.3376-.75.7052.7052 0 01.1875-.48l-.5925-.6225a1.35 1.35 0 01-.8325.3.8995.8995 0 01-1.05-.9075 1.442 1.442 0 010-.195 1.1175 1.1175 0 011.0875-.885.9149.9149 0 01.8624.6075l.8025-.3a1.01 1.01 0 01-.0375-.2776.9452.9452 0 01.3375-.7124 1.1849 1.1849 0 01.75-.3075.9439.9439 0 01.6074.21.93.93 0 01.4126.75 1.8469 1.8469 0 01-.225.75zm-11.475-20.048a2.0925 2.0925 0 00-.6225 3.2625l.6225 1.8375v3.2175c-.48.75-.945 1.5525-1.3875 2.3251v-8.16a2.128 2.128 0 00.105-.6449 2.0563 2.0563 0 00-.105-.6376v-6.075a9.181 9.181 0 001.3875 3.1125zm-1.3875-17.58v-3.5775l1.4625 2.25a14.297 14.297 0 00-1.4925 1.3275zm1.3875-.1576v5.7075a9.4507 9.4507 0 00-1.3875 3.18v-7.4475a14.156 14.156 0 011.3875-1.44zm-1.7776-16.162a2.4378 2.4378 0 00-2.025-1.08 2.55 2.55 0 00-1.6275.5925v-.48l3.5775-5.49 3.945 6v.06a2.798 2.798 0 00-1.8075-.675 2.5953 2.5953 0 00-2.1 1.0725zm-3.6524 1.2975a1.6124 1.6124 0 011.6275-1.5 1.5 1.5 0 011.5587 1.4387q.0012.0306.0012.0612v5.325l-3.1874 4.8526v-10.178zm3.18 6.9v3l-3.2175 4.845v-3zm0 4.545v4.5675a18.053 18.053 0 00-3.1875 6.345v-6.06zm-3.1725 17.25a21.854 21.854 0 011.11-7.0425v10.942a2.0925 2.0925 0 00-1.125 1.5v-5.4075zm1.11 7.68v12.57a6.825 6.825 0 00-.4725 1.4475 2.7972 2.7972 0 00-.105.75 5.0777 5.0777 0 001.1175 2.9025h-1.695v-19.17a2.0922 2.0922 0 001.125 1.4775zm2.6925 19.62a4.6407 4.6407 0 001.1925.4875l-.1575.1276a7.56 7.56 0 00-2.3625 3.8925 55.365 55.365 0 01-2.5125 7.305v-11.812zm-4.89 23.632a3.2194 3.2194 0 01.36-.63.4052.4052 0 01.3525-.165.9156.9156 0 01.585.1426 3.8113 3.8113 0 01.87.93 4.0049 4.0049 0 00.93.885h-3.96a3.2571 3.2571 0 00.8625-1.1325zm28.215-83.542-3.1875-4.8525v-1.5h.75v-.825h-.75v-.75h-.8625v.75h-.75v.8625h.75v1.635l-3.51 5.34v-10.042h7.56zm-7.035 2.91a1.92 1.92 0 011.275-.495 1.6875 1.6875 0 011.71 1.6647v5.1828l-3.5175 5.3325v-10.612a1.59 1.59 0 01.5325-1.0725zm3 7.905v3l-2.1075 3.285a13.476 13.476 0 00-1.41-.8625v-.0751zm-2.3325 7.1625v5.25a9.98 9.98 0 00-1.5-1.275v-4.92a12.609 12.609 0 011.485.945zm-13.088 4.1475a9.7432 9.7432 0 00-1.3875 1.2675v-5.325a12.748 12.748 0 011.3875-.9075zm-1.5-5.055-2.1525-3.2775v-3l3.555 5.3925a13.656 13.656 0 00-1.4025.885zm-2.1525-7.8225v-5.1825a1.6949 1.6949 0 011.71-1.665 1.9424 1.9424 0 011.2825.495 1.62 1.62 0 01.5175.975v10.718zm0-14.01v-1.5525h.75v-.8625h-.75v-.75h-.8475v.75h-.75v.8625h.75v1.5525l-3.1875 4.8525v-9.4725h7.5375v9.975zm-2.3025-10.14h-1.7625v-7.905l-.5325-.9525v-3.12h.75v-.8625h-.75v-.75h-.885v.75h-.75v.8625h.75v3.15l-.5475.915v8.19l-5.0475 7.62v-20.64a61.41 61.41 0 018.7675-2.385zm-3.75 1.8375v16.425l-2.1-3.1875v-2.5125h.75v-.8625h-.75v-.75h-.84v.75h-.75v.8625h.75v2.5125l-2.085 3.18v-8.7975zm-2.505 14.152 2.5275 3.84v2.115a2.0184 2.0184 0 00-1.08-.3225 1.9055 1.9055 0 00-1.4475.6675 1.9053 1.9053 0 00-1.455-.6675 1.95 1.95 0 00-1.0575.315v-2.1075zm-1.455 6.5025a1.0125 1.0125 0 011.0275.975v16.845l-2.085 3.18v-20.025a1.065 1.065 0 011.0575-.975zm1.455 18.75 2.5275 3.84v7.335a1.9207 1.9207 0 00-1.0125-.2925 2.0178 2.0178 0 00-1.5.69 1.9723 1.9723 0 00-1.5-.69 1.9426 1.9426 0 00-1.035.3v-7.35zm-1.5 11.745a1.05 1.05 0 011.05.975v18.938h-2.07v-18.983a1.0349 1.0349 0 011.035-.96zm1.065 21.825v19.035l-.0675.0675v-1.995l-2.0175-3.585v-13.522zm-1.38 17.475v7.7175l-1.0275.9v-10.44zm39.802 7.7175v-7.7175l1.0275-1.83v10.44zm.6975-92.198-5.04-7.6275v-8.0925l-.54-.93v-3.135h.75v-.8625h-.75v-.75h-.87v.75h-.75v.8625h.75v3.135l-.525.93v7.9125h-1.7475v-15.135a61.624 61.624 0 018.7675 2.37zm-7.0125-6.945v3.795h-7.5675v-3.795zm-7.56-.8625v-6.1875a.9225.9225 0 01.795-.975.75.75 0 01.5475.27 1.0424 1.0424 0 01.255.7051v6.1725zm2.4675 0v-6.1875a.975.975 0 01.975-.9675 1.0875 1.0875 0 01.75.3.9452.9452 0 01.315.6825v6.1575zm2.025-9.3075v1.62a1.9635 1.9635 0 00-1.05-.3225 1.8224 1.8224 0 00-1.3875.6525 1.6274 1.6274 0 00-1.26-.6525 1.5894 1.5894 0 00-1.0275.4125v-2.025l2.25-3.4575zm-4.7175-8.415a.9155.9155 0 011.83.06v3.6676l-1.8375 2.7974v-6.465a.4291.4291 0 000-.06zm-2.6775-13.305q2.25.09 4.5.3075v8.25l-2.25-5.79-2.25 5.8575zm0 11.535v-.5475l2.25-5.8575 2.25 5.79v.8925a1.7179 1.7179 0 00-.915-.27 1.7472 1.7472 0 00-1.35.645 1.7475 1.7475 0 00-1.35-.645 1.7249 1.7249 0 00-.9225.27zm0 1.8375a.9225.9225 0 011.8324-.2148.91.91 0 01.0051.1548v6.525l-1.8375-2.805zm1.83 8.0325v2.055a1.6653 1.6653 0 00-1.0875-.435 1.5 1.5 0 00-1.2.615 1.68 1.68 0 00-2.19-.3525v-1.9725l2.205-3.3675zm-4.5-1.6575v-8.25a.8925.8925 0 111.7775-.06v5.5575zm-2.7-19.778h4.455v6.12l-2.25-5.775-2.25 5.7075zm0 8.4225 2.25-5.7075 2.25 5.775v1.5a1.6949 1.6949 0 00-.885-.255 1.7173 1.7173 0 00-1.3275.6375 1.725 1.725 0 00-2.25-.3675zm0 3.045a.9225.9225 0 111.8375.09v8.3025l-1.8375-2.7975zm1.8375 9.9675v1.89a1.7255 1.7255 0 00-.915-.27 1.7472 1.7472 0 00-1.3425.6375 1.6274 1.6274 0 00-1.245-.6375 1.56 1.56 0 00-1.0275.4125v-2.0325l2.25-3.4575zm-4.5-1.5675v-6.4875a.9225.9225 0 111.8375 0v3.6675zm-2.6925-19.5c1.5-.15 3-.2475 4.5-.315v8.4975l-2.25-5.7825-2.25 5.865zm0 10.665 2.25-5.865 2.25 5.7825v.9075a1.7177 1.7177 0 00-.9225-.27 1.7553 1.7553 0 00-1.35.6375 1.7405 1.7405 0 00-1.35-.6375 1.71 1.71 0 00-.915.27zm0 2.3925a.915.915 0 011.83 0v6.465l-1.83-2.7975zm1.83 8.0325v2.0625a1.6654 1.6654 0 00-1.0875-.4425 1.5379 1.5379 0 00-1.2075.63 1.815 1.815 0 00-1.3725-.63 1.9584 1.9584 0 00-1.05.315v-1.65l2.4525-3.75zm-4.71-1.2675v-4.5c.6675-.1125 1.3425-.225 2.0175-.315v1.6875zm-40.185 71.25h-2.1675a2.0925 2.0925 0 000-3.75h2.1525zm-3.975-3.75a2.0925 2.0925 0 000 3.75h-2.0175v-3.75zm-2.0175-1.32v-4.0125a.96.96 0 01.3675-.75 1.4248 1.4248 0 01.9225-.33 1.14 1.14 0 011.2075 1.0575v4.035zm1.23 3.2025a1.6575 1.6575 0 111.6575 1.6575 1.6575 1.6575 0 01-1.6575-1.6575zm4.725-3.2025h-2.5875v-4.0125a1.1625 1.1625 0 011.245-1.0575 1.5 1.5 0 01.9525.3375.9449.9449 0 01.3825.75zm0-5.52a2.4158 2.4158 0 00-1.3425-.4125 2.1824 2.1824 0 00-1.6725.75 2.13 2.13 0 00-1.6425-.75 2.3181 2.3181 0 00-1.305.3975v-2.0925l2.94-4.5 3 4.5825zm0-3.555-2.5875-3.96v-1.65h.75v-.8624h-.75v-.75h-.8625v.75h-.75v.8624h.75v1.65l-2.505 3.84v-6.1425l5.955-8.52zm0-16.282-5.955 8.52v-10.252l-.6525-1.0575-.6675 1.0575v33.488h7.2675v19.342a61.89 61.89 0 010-70.875zm0-24.218v2.94a62.745 62.745 0 000 73.845v20.542q-1.7925-1.5825-3.495-3.27a76.68 76.68 0 0145.698-130.42v14.062c-.675.09-1.35.2025-2.0175.315v-10.275l-.66-.8325-.645.8325v10.5a62.356 62.356 0 00-8.7825 2.3325v-2.25l-.96-1.6425-.9975 1.6425v3q-2.91 1.125-5.67 2.52v-2.295l-1.3125 2.1375v.855a62.794 62.794 0 00-12.112 8.4375v-2.2875l-1.3125 2.0325v1.4625a62.774 62.774 0 00-5.76 6.195v-.3825l-.9675-1.65zm19.792 99v-.8774h.8625v-.8625h.8775v.8625h.855v.8774h-.855v.8251h-.8775v-.855zm-17.828-2.43v-1.3124h24.6l1.5 1.3124zm13.658 2.43v-.8774h.8625v-.8625h.8775v.8625h.855v.8774h-.8475v.8251h-.8775v-.855zm-4.1625 0v-.8774h.8625v-.8625h.87v.8625h.885v.8774h-.8775v.8251h-.87v-.855zm-4.1625 0v-.8774h.8625v-.8625h.8775v.8625h.855v.8774h-.855v.8251h-.8775v-.855zm3.78-92.962 1.5825 2.415v8.5576h-1.155v-7.11l.405-.645-.8325-1.335-.8325 1.335.405.645v7.1175h-1.605v-7.9425zm-2.0175 1.5v-13.395c.525-.48 1.0575-.9525 1.5975-1.41v12.398zm12.098 1.5v7.9726h-1.6125v-7.11l.405-.645-.8325-1.335-.84 1.335.405.645v7.11h-1.1475v-8.5576l1.59-2.415zm-1.59-3.9v-18.75c.525-.3075 1.0575-.6074 1.59-.9v21.975zm-1.5 37.785v1.6726a17.562 17.562 0 00-2.25-.2325v-.0374l2.6925-4.1025 2.6325 4.1025v1.1925a13.339 13.339 0 00-2.25-.75v-1.845zm-2.25-.18v-11.535a1.305 1.305 0 011.02-.4574 1.17 1.17 0 011.245 1.0575v7.5zm3.12-3.45v-7.5a1.065 1.065 0 011.0724-1.0576h.0076a1.245 1.245 0 01.825.3225.99.99 0 01.345.75v10.928zm1.0875-9.39a1.9574 1.9574 0 00-1.5.75 2.19 2.19 0 00-1.6575-.75 2.25 2.25 0 00-1.02.2474v-.5174l2.61-7.215 2.685 7.6575v.1726a2.1146 2.1146 0 00-1.185-.36zm-1.665-10.028-2.61 7.2v-9.2024h5.385v9.69zm.3225-23.25-1.605-2.4374-1.575 2.4075v-7.62q1.545-1.0725 3.1575-2.0475zm-1.605-.8699 1.5825 2.4075v6.9675l-1.155 1.755v-6h.75v-.8775h-.75v-1.665h-.8325v1.665h-.75v.8625h.75v6l-1.1475-1.7476v-6.96zm-.4275 12.69v8.565h-1.125v-7.11l.405-.645-.8325-1.335-.8325 1.335.405.645v7.11h-1.155v-8.5575l1.5825-2.3775zm-1.9875-11.85-1.5825-2.4076-1.5825 2.4075v-4.5825q1.5375-1.26 3.165-2.43zm-1.5825-.84 1.5825 2.4074v6.9675l-1.1475 1.7475v-6h.8325v-.87h-.8325v-1.665h-.8625v1.665h-.75v.8625h.75v6l-1.1475-1.755v-6.9525zm1.3575 22.117v9.4725l-2.6925-7.44-2.7 7.5v-9.5325zm-2.6925 4.575 2.6925 7.4325v.2551a2.2491 2.2491 0 00-1.02-.2475 2.1975 2.1975 0 00-1.6725.75 2.07 2.07 0 00-1.59-.75 2.01 2.01 0 00-1.1175.345v-.3225zm2.6925 8.7675v11.52l-2.25-3.45v-7.5a1.1625 1.1625 0 011.245-1.0575 1.3125 1.3125 0 011.005.48zm-4.275-.4575a1.1475 1.1475 0 011.155 1.0575v7.5l-2.25 3.45v-11.025a1.1175 1.1175 0 011.095-.99zm1.5825 9.4425 2.6925 4.125a16.564 16.564 0 00-2.25.2251v-1.6876h-.8775v1.86a13.182 13.182 0 00-2.25.75v-1.1475zm3.315 5.0025c6 0 9.2025 2.745 10.995 5.6025a14.672 14.672 0 011.785 4.335 2.8123 2.8123 0 00-1.2975-.375h-.1125a2.827 2.827 0 00-1.7325.675 12.345 12.345 0 00-2.88-5.9175 9.5134 9.5134 0 00-6.2325-3.54h-.495a5.1038 5.1038 0 00-.9975.09 10.207 10.207 0 00-5.775 3.465 12.247 12.247 0 00-2.955 5.8725 2.7525 2.7525 0 00-1.815-.63 2.7906 2.7906 0 00-1.23.2625 14.695 14.695 0 011.7775-4.2225c1.7925-2.8725 5.0025-5.61 10.965-5.625zm11.918 18.278v-7.7775a1.8369 1.8369 0 01.675.345 1.26 1.26 0 01.4725.84v25.748l-1.14 2.0625v-21.218zm-2.25-17.618v1.9575a11.943 11.943 0 00-2.1525-1.605l2.58-3.99 3 4.5v6.3525a15.111 15.111 0 00-1.365-2.7525 12.873 12.873 0 00-1.2075-1.6425v-2.8575zm.8475-4.5375v-9.5175a1.17 1.17 0 011.2525-1.0575 1.5 1.5 0 01.9375.33.96.96 0 01.3675.75v13.38zm2.5425-11.025a2.34 2.34 0 00-1.2975-.39 2.19 2.19 0 00-1.665.75 2.0247 2.0247 0 00-1.5675-.75 2.0544 2.0544 0 00-1.08.3075l2.82-7.74zm-2.43-9.2775v-37.755c.8025-.3525 1.62-.69 2.4375-1.0125v45.51zm-.8625.24-2.37 6.5625v-43.005c.75-.405 1.575-.795 2.37-1.1625zm-1.2375 9.4876a1.1174 1.1174 0 011.1325 1.0575v9.5175l-2.25 3.4949v-13.035a1.1324 1.1324 0 011.1175-1.035zm-5.64 59.865v.96l-.105.1726v-4.3725c.0525-.75.09-1.65.1275-2.52l.1275.1275.1275.1577a.7493.7493 0 01.1725.45 13.166 13.166 0 00-.4275 2.5274c-.0525.7351-.0224 1.7251-.0224 2.4976zm-3-.3-.375-.1049-.2775-.0825-.2175-2.3025 2.745.465a.7.7 0 01-.045.3225v.15l-2.0025-.3525zm-3.12-.9075a26.921 26.921 0 01-2.91-.9751 2.7149 2.7149 0 00-.975-.285 1.8083 1.8083 0 00-.09-.36c1.425.3451 4.5 1.1176 5.4975 1.3575l.06.705c-.345-.09-.93-.2474-1.5825-.4424zm.435 1.02v3.48h-1.5v-3.9075zm-2.34-.7124v4.185h-1.5v-4.7475l.12.0524a14.182 14.182 0 001.3725.5175zm-3-4.5a3.281 3.281 0 00-.8025-.21v-28.005a1.1925 1.1925 0 01.5175-.9375 2.1838 2.1838 0 01.96-.3975v29.85zm.6825 5.25v1.86l-.2775-.8325zm-1.1025 1.11.4725 1.7775a2.9478 2.9478 0 01-1.2225-.75 2.16 2.16 0 01-.5475-1.59v-.0825a11.332 11.332 0 01.2925-1.8675c.135-.6226.27-1.1175.27-1.1175a.4123.4123 0 000-.2625s-.0675-.1877-.135-.4575a3.6266 3.6266 0 01-.135-.8475.5771.5771 0 010-.2475c.18-.27.1875-.27.3825-.285a2.0937 2.0937 0 01.675.1723l.4875.1951a2.9467 2.9467 0 00-.15.9525 4.5051 4.5051 0 00.2475 1.3875 1.3321 1.3321 0 00-.1125.2925c-.12.45-.5625 2.5425-.5625 2.55a.4141.4141 0 00.0375.18zm-1.605-3.75a16.709 16.709 0 00-.555 3.0675v.1049a3 3 0 00.8025 2.1975 4.0422 4.0422 0 00.8775.675h-1.9275v-38.25a1.3426 1.3426 0 011.14 1.305v28.215a1.4174 1.4174 0 00-.45.5025 1.32 1.32 0 00-.1575.69 5.3149 5.3149 0 00.2775 1.53zm1.365-32.61a11.589 11.589 0 012.7-5.1676 11.344 11.344 0 012.25-1.965 6.748 6.748 0 00-.6825 1.62 21.749 21.749 0 00-.615 5.6325 3.1953 3.1953 0 00-1.905-.6226 3.2555 3.2555 0 00-1.74.54zm19.358 9.0824-.75.6075-.7875-.6075zm-.8025-.8624v-6.4352a1.2451 1.2451 0 01.495-.9449 1.92 1.92 0 01.8025-.3825v7.8075zm-.345 1.7474-1.35 1.0425-1.3275-1.02 1.1475-.9075h.3825zm-1.995 16.372v-6.645a5.6641 5.6641 0 00.8175-.1125 2.5752 2.5752 0 00.6675-.18v17.58c-.495-.0975-.9975-.2024-1.41-.3225h-.0675v-4.95a14.131 14.131 0 00.8025-3.1425 3.3152 3.3152 0 00-.81-2.2275zm1.1025-7.7175a8.0614 8.0614 0 01-1.3875.2251l-.75.0675-.48-1.245c0-.09.0675-.3075.4275-.5325a8.53 8.53 0 011.77-.75.7463.7463 0 01.2025 0 .4868.4868 0 01.285.0751l-.09.0524a8.4834 8.4834 0 01-.8175.345 1.6143 1.6143 0 00-.3525.18.6076.6076 0 00-.285.5025.5883.5883 0 000 .15.5473.5473 0 00.27.3375.6532.6532 0 00.3225.0751 3.6292 3.6292 0 001.23-.3975 7.882 7.882 0 011.725-.6375v.0451a.51.51 0 01-.1725.3 7.7645 7.7645 0 01-1.005.66 7.1 7.1 0 01-.8925.5475zm-4.8 14.31a5.9993 5.9993 0 01.33-1.89l.75.1877-.93 4.9575h-.165v-.75c.045-.825.015-1.83.015-2.505zm-6.9525-21.698.345-.1649c.135-.06.2925-.1276.4425-.18a4.9119 4.9119 0 00.285.54 2.4074 2.4074 0 001.44 1.1926 4.3043 4.3043 0 00.8775.09 6.8621 6.8621 0 001.305-.1426c.1275.1426.3225.3675.54.6525a5.1152 5.1152 0 01.6975 2.7225l-1.56.66-.06-.06c-.615-.615-1.305-1.5-2.775-3.3l-.6675.5475 1.2075 1.5-2.64 1.9425c-.12-.3-.21-.5175-.2475-.6075a7.2814 7.2814 0 01-.3075-.9975 7.5957 7.5957 0 01-.2475-1.7325 1.9508 1.9508 0 01.2025-.99c.6075-.8925 1.05-1.4775 1.1625-1.6725zm-1.0875 0v-1.7925a1.8506 1.8506 0 00.3075.21 2.7754 2.7754 0 001.3125.315h.09v.06a6.9969 6.9969 0 00-1.1175.48.4857.4857 0 00-.135.1125 4.65 4.65 0 01-.42.6375zm3.9675-.48a5.1445 5.1445 0 001.17.1126h.51l-.06.8775h-.12a5.7174 5.7174 0 01-.945.09 3.439 3.439 0 01-.6975-.0675 1.6124 1.6124 0 01-.885-.8024 4.2427 4.2427 0 01-.27-.525c0-.0675-.0525-.12-.06-.1577v-.06a5.6676 5.6676 0 001.395.5551zm-.8025-1.1925a2.1534 2.1534 0 00.5625-.4575l.1875.51.0975.2625a5.149 5.149 0 01-.8175-.285zm7.68-1.3275h-1.5v-6.45a1.2 1.2 0 01.5175-.9375 2.174 2.174 0 01.96-.3974zm.6225.8625-.795.63-.8175-.63zm-1.155.9075-.9525.75v-1.5zm.36.2776 1.32 1.0124-1.3425 1.065-1.2525-.96v-.0825zm-.4125 2.3474-.9.69v-1.38zm.36.2776 1.35 1.0424-1.44 1.1026-1.1625-.9v-.2776zm-.75 3.6975a2.7535 2.7535 0 01-.2025-.345l.855-.66.48.3675a6.737 6.737 0 00-.84.42 1.8522 1.8522 0 00-.24.2474zm.9525 3.1875v5.55l-1.5-1.68v-3.2775zm-.6675-4.5-.6675.5175a3.0767 3.0767 0 01-.1425-.9375v-.2024zm-.75 2.7375-3.06 1.08.27-.795 2.64-.69zm-1.2975-8.67a1.1431 1.1431 0 01-.0975-.2775 2.1405 2.1405 0 010-.405 1.9294 1.9294 0 010-.3225.7636.7636 0 010-.1048 4.281 4.281 0 01.36-.435l.09-.09v9.225l-.42.1126-.1125-.9525v-.1049a6 6 0 00-.84-3.2851v-1.9125h.0675a1.9341 1.9341 0 00.57-.0674.8025.8025 0 00.5625-.585 1.0672 1.0672 0 000-.2551 1.0953 1.0953 0 00-.12-.4725zm-.8775 7.905-.8325.2175-.285-.285 1.02-.4275zm1.2525-10.807-.15-.33a2.3 2.3 0 01-.0975-.24v-.0525a3.3759 3.3759 0 00.135-.6675.96.96 0 00-.1875-.5625c-.1275-.1874-.3075-.4125-.45-.585a1.9352 1.9352 0 00.315-1.065 1.5523 1.5523 0 00-.63-1.3275 2.8519 2.8519 0 00-.3975-.2174v-1.0277a2.1753 2.1753 0 01.96.3975 1.2 1.2 0 01.5175.9375zm-1.02-1.3575v.0674s-.0675.2325-.1275.5625a.4292.4292 0 000 .0752.8173.8173 0 00-.615.75 2.3631 2.3631 0 01.8025-.1048l.2775.6074v.0451l-.09.09-.0525.06-.6825.33a1.0574 1.0574 0 01.12.465c0 .24-.09.51-.5625.8775l.525.6825.1425-.12a.4261.4261 0 00.0825.195.5046.5046 0 01.045.12 1.15 1.15 0 01-.3 0h-.345c-.15 0-.3225 0-1.275.0751h-.2625a2.6274 2.6274 0 01-.2775-.225 9.2743 9.2743 0 01-.3525-.9076 4.73 4.73 0 001.08-.75 6.68 6.68 0 001.5-3.4051c.195.27.33.435.42.57zm-5.8425 14.76a13.384 13.384 0 001.9125 1.2974h-1.44v-.0674l-.5025-1.23zm-.6525-1.8825 2.79-2.0625.375.4425-2.415 2.3775zm2.1075 1.8825c-.315-.2024-.5925-.39-.75-.5175l2.385-2.34.375.375zm2.625-1.875.1425.1349-.96 2.8425-.9075-.54-.165-.0975zm-5.6625.2023.42 1.1025.795 2.07a3.3143 3.3143 0 010 .4275 1.3637 1.3637 0 01-.09.57 8.7674 8.7674 0 00-.825 4.2 1.7926 1.7926 0 00.4425 1.3426 1.1029 1.1029 0 00.4725.27 4.1629 4.1629 0 00.105.5925 16.661 16.661 0 00.75 2.295 4.9433 4.9433 0 00-1.395-.4275 4.0885 4.0885 0 00-.54 0h-.135zm1.1925 7.2525c.645-.1276 2.1375-.42 3.06-.66.75-.2024 1.755-.5025 2.34-.69 0 .1649.045.3374.06.5024-.6.18-1.905.57-2.685.75s-2.115.4424-2.805.57c.0074-.1276.015-.285.03-.4425zm2.8425-1.5c-.75.2024-1.9875.45-2.715.5925a6 6 0 01.585-1.7625 1.8221 1.8221 0 00.1875-.75h2.8725l.1425.0824.405.2552a2.9968 2.9968 0 01.81.75.7449.7449 0 01.075.15c-.5625.1951-1.5975.5175-2.3475.7125zm1.7325-3 .2475-.75 3.75-1.3051.1425.3751zm2.49-.0824.2475-.0976v1.8451a1.4547 1.4547 0 01-.2475-.5176zm.6 3.555 1.8525 2.1-.5925.4725-1.83-2.1675zm.585 3.1125-.4575.36-1.635-1.5a.7462.7462 0 00.075-.1426 3.0963 3.0963 0 00.1125-.8775h.0525zm-1.14.9075-.645.51c-.135-.1275-.285-.27-.465-.4125v-1.095zm1.6575 3 .8625.2024c-.12.3675-.2475.75-.3825 1.1025-.48 1.3725-.96 2.6325-1.1475 3.12l-.18.09zm.885 2.73v2.13a2.51 2.51 0 00-.63-.4425c.15-.4126.375-.99.6225-1.6951zm-2.4225-3.9751a1.6131 1.6131 0 00-.2175-.57l3.0525-2.4225a2.5455 2.5455 0 01.24.4875l-2.61 2.025 2.3625.6-.1575.51zm2.3775-.8925.8325-.645a5.5631 5.5631 0 01-.165.8175zm3-12.75a.3394.3394 0 000-.0451.9455.9455 0 00-.225-.555l.4725-.36.8625.66a3.8756 3.8756 0 00-1.11.285zm-.585-.87a1.499 1.499 0 00-.5925-.1275 1.5579 1.5579 0 00-.4425.0675c-.2025.06-.435.1349-.675.225l-.5925-.4575 1.3875-1.1326 1.35 1.035zm-.915-1.9726-1.35-1.0425 1.395-1.05 1.35 1.0349zm.8625-5.4375h-1.5v-7.8225a2.1837 2.1837 0 01.96.405 1.1927 1.1927 0 01.5175.9375zm-1.905-8.7225a3.1577 3.1577 0 00-1.9125.6225 22.125 22.125 0 00-.5925-5.7075 6.5138 6.5138 0 00-.69-1.635 10.996 10.996 0 012.325 2.0475 11.686 11.686 0 012.625 5.175 3.2325 3.2325 0 00-1.7325-.5025zm-2.7825.6075a3.1728 3.1728 0 00-1.8975-.6075 3.4654 3.4654 0 00-1.8825.495v-8.4225c1.8375.1426 2.7 1.2751 3.255 3.0751a21.292 21.292 0 01.5475 5.46zm-2.3325.2775v.84a2.9973 2.9973 0 00-.795.12 3.5892 3.5892 0 00-.6-.18 1.0866 1.0866 0 01.405-.45 2.362 2.362 0 011.0125-.3225zm-.9975 1.8075.15.0675.1575-.045a2.375 2.375 0 01.6975-.1276 1.3572 1.3572 0 01.795.285.5852.5852 0 01.2175.3825 5.4733 5.4733 0 00-1.29-.1275h-.39v.8624h.3525a4.3388 4.3388 0 011.1175.12.929.929 0 01-.39.315l-.105.0451a2.1063 2.1063 0 00-.5775-.0675h-.4425v.8625h.4425a1.3575 1.3575 0 01.285 0 5.4048 5.4048 0 01-1.17 2.6475 2.5228 2.5228 0 01-1.3575.75h-.39l-.135.2551a1.297 1.297 0 01-.675.51 2.0917 2.0917 0 01.285-1.0125l-.75-.4048a3 3 0 00-.39 1.4175v.2024a2.391 2.391 0 01-.33 0v-.2475a2.6847 2.6847 0 01.405-1.5l-.705-.495a3.39 3.39 0 00-.555 1.815 1.32 1.32 0 01-.2625-.84 2.0027 2.0027 0 01.4575-1.2825l.12-.1275v-.3075a4.3725 4.3725 0 01.8625-3 3.5173 3.5173 0 012.475-1.185 2.7148 2.7148 0 011.11.24zm-5.16 2.3251v-2.79a1.2 1.2 0 01.5175-.93 2.1961 2.1961 0 01.96-.4049v1.605a4.6006 4.6006 0 00-.5175.465 4.0413 4.0413 0 00-.945 2.055zm2.34-3v-1.125a2.3558 2.3558 0 01.9825.33 1.141 1.141 0 01.3825.3975 4.1507 4.1507 0 00-1.35.375zm1.5-1.5a3.4655 3.4655 0 00-1.8825-.4951 3.1726 3.1726 0 00-1.8975.6075 20.895 20.895 0 01.5775-5.3849c.555-1.785 1.425-2.94 3.2325-3.135zm-4.68 15.75v14.85a6.037 6.037 0 01-.84.0825 1.4976 1.4976 0 01-.5175-.0751l-.12-.045v-30.18a2.1674 2.1674 0 01.96.3975 1.1924 1.1924 0 01.5175.9375v10.792a2.8942 2.8942 0 00-.27 1.3124 8.4767 8.4767 0 00.2625 1.95zm-2.0475 15.518.3975.1425a2.4134 2.4134 0 00.8025.1276c.63 0 1.2-.1576 1.7925-.1576a3.3143 3.3143 0 01.4275 0 4.1327 4.1327 0 011.5.5325 3.7927 3.7927 0 01.4275.2775l.06.75c-1.275-.315-4.2825-1.065-5.4675-1.35a2.053 2.053 0 01.06-.3zm6.5475.4724-.435-.0751c-.0975-.24-.255-.66-.435-1.14a14.786 14.786 0 01-.6225-1.995l-.09-.5025.69-.15zm-.045-4.0574.75-.18.2175-.0525.42 4.5-.3975-.0675zm-1.26 7.6875.3825.1049.2249.0824c.21.0751.5176.1727.8626.27v2.79h-1.5zm3.495-1.0275a2.6933 2.6933 0 01-.0825.3225.8626.8626 0 01-.375.48.6724.6724 0 01-.2325 0h-.09l-.09-.975zm-1.155 1.65a3.4361 3.4361 0 00.465 0 1.2223 1.2223 0 00.75-.195 1.9114 1.9114 0 00.2775-.24v3h-1.5zm1.5-3.8325-.315-.0524-.45-4.905c.3-.09.585-.18.8325-.2625l.1425-.0524c0 .585 0 1.5-.0675 2.43s-.1125 2.0624-.165 2.8724zm-.5175-5.9325c-1.5.495-3.9975 1.0126-4.1325 1.035a.2476.2476 0 01-.1725-.0674.7506.7506 0 01-.165-.4575c.615-.1126 2.145-.4126 3-.615.75-.18 1.8375-.5025 2.505-.705a2.78 2.78 0 01-.045.3975 4.66 4.66 0 01-1.0125.4425zm.6675-4.6575 1.0875-.4425v.4425zm1.1775.8625a3.9581 3.9581 0 00.555.9225l.255.3225-.81.5775a4.5912 4.5912 0 00-.405-1.65 1.79 1.79 0 00-.1275-.1726zm.2475 14.505a2.1275 2.1275 0 00.3675 0 3.3284 3.3284 0 001.5-.4125.494.494 0 00.165-.0374h.0825a1.76 1.76 0 01.39.2925 3.2613 3.2613 0 001.2675.5625 29.801 29.801 0 003.5475.675c-.045.1426-.0375.135-.12.18a1.9652 1.9652 0 01-.75.1126 7.9244 7.9244 0 01-.9225-.0374 22.772 22.772 0 01-2.6775-.2251 1.3914 1.3914 0 00-.3225 0 28.353 28.353 0 00-2.8425.3075c-.0525 0-.1275 0-.1575-.3a.3548.3548 0 010-.06 2.489 2.489 0 01.45-1.035zm6.3075.1049v-18.18l.1425-.09a7.4283 7.4283 0 001.1625-.75v19.268c-.315-.06-.8175-.1276-1.3275-.24zm1.1325-21.225-.7875-.6075.975-.75v.39a2.5741 2.5741 0 01-.21.99zm-1.1475-.885-1.35-1.035 1.38-1.065 1.305 1.005v.0751zm.39-2.3775.945-.75v1.4475zm-.36-.2775-1.35-1.0425 1.35-1.0425 1.2975.9975v.0751zm.36-2.355.9375-.75v1.4475zm-17.482-20.453-2.25-3.4425v-9.4949a1.0725 1.0725 0 011.0871-1.0577h.0079a1.253 1.253 0 01.825.3225.9978.9978 0 01.345.75zm0-16.95-2.37-6.555v-23.415q1.155-1.2375 2.37-2.415zm0 2.43a2.1462 2.1462 0 00-1.14-.3375 1.9725 1.9725 0 00-1.5375.75 2.25 2.25 0 00-1.68-.75 2.5056 2.5056 0 00-1.2825.36l2.8275-7.815zm-3.2325-9.2775-2.5275 6.99v-26.175q1.215-1.5525 2.5275-3zm-2.145 10.14a1.5746 1.5746 0 01.975-.3375 1.185 1.185 0 011.275 1.0575v9.5175l-2.6325 4.065v-13.582a.945.945 0 01.3825-.72zm2.7225 11.13 2.595 3.9525a11.899 11.899 0 00-2.1675 1.5975v-2.04h-.9v2.9175a13.053 13.053 0 00-1.2525 1.68 15.4 15.4 0 00-1.38 2.835v-6.21zm-1.8075 13.425v38.25h-1.2975v-36.975a1.2824 1.2824 0 011.2675-1.2675zm24.232 38.625v-7.7175l.9825-1.785v10.388zm23.25 22.245a76.35 76.35 0 01-49.342-18h3.3225l2.4 2.0625h15.608l2.25-2.0175h3.48a62.895 62.895 0 0044.572 0h3.4575l2.1975 2.0175h15.39l2.415-2.0175h3.5925a76.343 76.343 0 01-49.365 17.962zm31.522-110.48 1.5525 2.415v8.5575h-1.1475v-7.11l.405-.645-.8325-1.335-.8325 1.335.405.6375v7.1175h-1.5v-8.0623zm-1.9575 1.3727v-21.892c.5175.285 1.0275.57 1.5.8625v18.75zm12.09 1.725v7.875h-1.65v-7.11l.405-.645-.8325-1.335-.8325 1.335.405.645v7.11h-1.1475v-8.5575l1.5825-2.3775zm-1.65-4.005v-12.442c.5625.4725 1.1025.96 1.65 1.455v13.432zm-1.5 37.762v1.6875a17.01 17.01 0 00-2.295-.2174v-.0374l2.6925-4.1026 2.7525 4.1925v1.1025a13.318 13.318 0 00-2.2875-.75v-1.86zm-2.295-.1576v-11.528a1.2976 1.2976 0 011.0125-.4575 1.1625 1.1625 0 011.245 1.05v7.5zm3.1275-3.4425v-7.5a1.0725 1.0725 0 011.0875-1.05 1.38 1.38 0 01.87.33 1.0124 1.0124 0 01.3525.585v11.168zm1.0875-9.3975a1.9647 1.9647 0 00-1.5.75 2.19 2.19 0 00-1.6575-.75 2.25 2.25 0 00-1.0125.2474v-.1726l2.7075-7.5 2.73 7.5525v.2775a2.2514 2.2514 0 00-1.2675-.4125zm-1.5-9.975-2.7075 7.5v-9.5475h5.4375v9.6zm.225-23.325-1.575-2.4075-1.5825 2.4075v-7.02q1.62 1.1625 3.165 2.4225zm-1.575-.84 1.5825 2.4075v6.9675l-1.1475 1.7475v-6h.75v-.87h-.75v-1.665h-.8625v1.6575h-.75v.8625h.75v6l-1.155-1.7475v-6.9525zm-.4275 12.698v8.5575h-1.155v-7.11l.405-.645-.8325-1.335-.8325 1.335.405.645v7.11h-1.1625v-8.5575l1.5825-2.3775zm-2.01-11.857-1.5825-2.4075-1.5825 2.4075v-9.705q1.6125.975 3.165 2.0475zm-1.5825-.84 1.5825 2.4075v6.9675l-1.155 1.755v-6h.825v-.8775h-.825v-1.665h-.9075v1.6575h-.75v.8625h.75v6l-1.1475-1.7475v-6.9525zm1.3575 22.118v9.4125l-2.64-7.2975-2.6925 7.4475v-9.5625zm-2.64 4.6425 2.64 7.2975v.3225a2.25 2.25 0 00-1.0125-.2475 2.19 2.19 0 00-1.6575.75 1.9653 1.9653 0 00-1.5-.75 2.01 2.01 0 00-1.1175.3525v-.27zm2.64 8.6925v11.52l-2.25-3.4425v-7.5a1.1625 1.1625 0 011.245-1.05 1.3124 1.3124 0 01.99.4725zm-5.3325.6a1.11 1.11 0 011.1175-1.0575 1.0725 1.0725 0 011.0875 1.0573v7.5l-2.205 3.3675zm2.64 8.385 2.6925 4.1025v.03a17.092 17.092 0 00-2.25.2174v-1.6725h-.8625v1.8376a13.845 13.845 0 00-2.25.7125v-1.245zm3.4125 5.0025c5.9475 0 9.15 2.76 10.95 5.64a14.834 14.834 0 011.755 4.1625 2.8875 2.8875 0 00-1.2-.24 2.7525 2.7525 0 00-1.815.63 12.285 12.285 0 00-2.955-5.8725 10.627 10.627 0 00-5.115-3.3225 5.4212 5.4212 0 00-1.6575-.2324h-.495a9.5424 9.5424 0 00-6.24 3.54 12.405 12.405 0 00-2.8725 5.8875 2.6621 2.6621 0 00-1.74-.645 2.835 2.835 0 00-1.3725.3674 14.674 14.674 0 011.7775-4.32c1.7475-2.8425 4.95-5.58 10.965-5.595zm4.9125 53.775v-.8775h.855v-.8626h.8775v.8626h.855v.8775h-.855v.855h-.8775v-.855zm-17.97-2.43 1.5-1.3125h24.6v1.3125zm13.762 2.43v-.8775h.855v-.8626h.8775v.8626h.855v.8775h-.825v.855h-.8775v-.855zm-4.17 0v-.8775h.9075v-.8626h.8775v.8626h.855v.8775h-.855v.855h-.8775v-.855zm-4.1625 0v-.8775h.855v-.8626h.8775v.8626h.855v.8775h-.8175v.855h-.8775v-.855zm2.4675-39.75v5.8125a2.5276 2.5276 0 01-1.2225 2.34l-.0825-.06a12.328 12.328 0 00-1.9725-.84 1.5453 1.5453 0 00-.54-.1049 1.0125 1.0125 0 00-1.0575.9225h-.045l-.2025-.0975a2.5949 2.5949 0 01-.885-2.1375v-5.8126zm-6-.8625v-2.7075a1.5 1.5 0 011.3275 1.35v1.3575zm21.75 29.738a.937.937 0 00-.48-.33l-.3375-.1276v-30.638a1.365 1.365 0 011.275-1.3349v38.25h-1.275v-2.445l.6225-1.185a3.2868 3.2868 0 00.4125-1.44 1.2376 1.2376 0 00-.21-.75zm-.69.5175a.4584.4584 0 01.0525.24 2.4692 2.4692 0 01-.3075 1.035l-1.9051 3.6h-3.4349a.4272.4272 0 01.075-.1576 2.2481 2.2481 0 01.855-.48c.3975-.15.75-.24.75-.2474l.1875-.0524 1.3275-2.6475c.135-.1126.48-.39.8775-.6675a3.5464 3.5464 0 011.365-.675c.15.0141.1425.0141.165.0141zm-.99 4.5v.8175h-.4275zm-5.3925.8175h-.75v-4.98l1.5.375v3a1.7932 1.7932 0 00-.57.4875 1.2079 1.2079 0 00-.225.6825.9673.9673 0 00.0525.4125zm-1.8675-6.1275.2925-.8025 5.4075 1.95-.285.2251zm-3.3975-2.2275a2.2238 2.2238 0 010-.2251v-.2474l3.285.33-.75 2.1225-.54-.135h-.1425l.5175-1.5525zm.2325 7.32v-.27a5.9176 5.9176 0 00-.1275-1.2075 5.4259 5.4259 0 01-.165-1.3425v-.885a11.392 11.392 0 00-.0675-1.575l.195.1275a4.9753 4.9753 0 001.1775.435v5.745h-1.305a1.6734 1.6734 0 00.27-.9525zm-8.415.9975h-1.2v-24.818c.225.1577.4875.3225.75.4875l.57.345v22.418a.4275.4275 0 00-.4875.33 1.09 1.09 0 000 .2475 1.5 1.5 0 00.3675 1.005zm0-25.095a8.3146 8.3146 0 01-1.02-.6975.3971.3971 0 01-.15-.2625.1878.1878 0 010-.0824 3.9037 3.9037 0 01.6525.2624c.36.1727.75.3825 1.035.5175a3.2468 3.2468 0 001.1475.36.6672.6672 0 00.33-.0824.57.57 0 00.27-.3525.6828.6828 0 000-.1126.6.6 0 00-.3-.51c-.345-.2024-.75-.2625-1.1775-.4875h-.045s0-.0751.195-.0825a.751.751 0 01.2475.0525 12.384 12.384 0 011.815.75.7875.7875 0 01.42.54l-.405.915-.8925-.0752-.87-.06h-.33c-.165-.12-.525-.3149-.915-.5774zm8.0625.9-.195.54-3.6375-1.26.105-.24zm-3.69-1.8225a3.6 3.6 0 00.4425-.42v.5325zm.4425-9.5175h-1.5v-2.7a2.1826 2.1826 0 01.96.405 1.1925 1.1925 0 01.5175.9375zm2.3325 4.665v5.5651l-1.5-.3826v-11.205a1.1927 1.1927 0 01.5175-.9375 2.1372 2.1372 0 01.9525-.3974v4.2149a1.8517 1.8517 0 00-.435.3376 1.7021 1.7021 0 00-.4125 1.1549 2.3025 2.3025 0 00.87 1.65zm1.455-3.645v.1049h-.045a2.0588 2.0588 0 00-.42.0451h-.105v-.5025a5.98 5.98 0 00.5625.3525zm-.5925-1.215v-2.5125a2.3034 2.3034 0 011.3425.615l-.1351.1049a1.644 1.644 0 00-.4425.4275c-.3375.495-.5025.9825-.7725 1.365zm.27 2.205a1.41 1.41 0 01.255 0 .968.968 0 01.6525.2775 2.0029 2.0029 0 001.0725.5251h.165a1.8831 1.8831 0 001.305-.6225 1.5371 1.5371 0 00.6225.36c-.9225 1.71-1.905 1.9275-2.805 1.95h-.2325a3.68 3.68 0 01.345-.405l-.6225-.5925a5.1738 5.1738 0 00-.6825.885 1.5562 1.5562 0 01-.435-.18l.105-.1426a8.0012 8.0012 0 01.6675-.8025l-.6075-.6075a8.63 8.63 0 00-.75.9225 1.0866 1.0866 0 01-.1575-.51.8324.8324 0 01.195-.585 1.5828 1.5828 0 01.9-.4725zm6.6675-3.0825a1.6363 1.6363 0 01.57.75 3.1815 3.1815 0 01.33 1.32 2.07 2.07 0 01-.0375.375 3.6389 3.6389 0 01-.4051-.8624l-.8249.2474a4.805 4.805 0 00.705 1.3725 2.0086 2.0086 0 01-.255.1275 4.3317 4.3317 0 01-.75-1.35l-.8325.2325a4.496 4.496 0 00.54 1.1775 1.8338 1.8338 0 01-.4125-.1874 1.89 1.89 0 01-.2475-.18l-.075-.0675-.1575-.1649h-.345c-.3225 0-.5925-.1874-.75-.66a.5342.5342 0 010-.1349 4.7526 4.7526 0 01.57-1.245l.15-.3675-.345-.18a10.147 10.147 0 01-1.2-.5925 1.1924 1.1924 0 01-.6375-1.0125.18.18 0 010-.0752.8847.8847 0 01.2925-.3674 2.249 2.249 0 01.8775-.4125 5.0867 5.0867 0 011.1325-.135 2.1975 2.1975 0 011.605.5475.96.96 0 01.3375.705 3.6535 3.6535 0 01-.1275.675l-.0525.3225zm.75-1.3275a2.0859 2.0859 0 01.8325-.3075v2.5575a4.2654 4.2654 0 00-.2325-.585 2.8672 2.8672 0 00-.675-.915 2.46 2.46 0 00.075-.5625 1.2373 1.2373 0 00-.03-.1874zm-8.4 33.218v.885a6.2146 6.2146 0 00.1575 1.545v.195l-.285-.1723-2.13-8.3025.8324-.3225.66 1.7625a11.201 11.201 0 01.765 4.41zm-.615-6.51.465-.195v1.41zm-3.42 1.32.9675-.375 1.92 7.4175-.39-.2251zm1.635 6.9675a10.015 10.015 0 01-1.575.9825v-5.25zm-2.55-6.96.12.3225v7.9575a5.2494 5.2494 0 01-1.26.15h-.21v-22.185c.315 0 .75.06 1.1925.0825h.2849v9.4425a3.135 3.135 0 00-1.065 2.25 2.61 2.61 0 00.9375 1.98zm-.105-1.8675a.4473.4473 0 010-.0675 1.7923 1.7923 0 01.2925-.9975l.75.615zm2.745-.2174-1.92-1.5c.1275-.1349.2775-.2775.4425-.42.3825.3225 1.215 1.035 1.62 1.44a2.8963 2.8963 0 01.5175.7125h-.075l-2.775 1.08a1.9657 1.9657 0 01-.255-.3075zm.75-3.825a14.448 14.448 0 012.37-1.5825l.4425-.2325-.0825.6525-3.96 2.79-.3675-.315zm-.0975-1.02v-5.3175l1.5.6075v3.75a15.519 15.519 0 00-1.47.96zm8.3625-14.738.2925.5175.0524.0451-3.3 1.05a.9506.9506 0 00-.1125-.3076zm-1.2675-.39a5.9215 5.9215 0 00.42-.7125 3.0691 3.0691 0 00.3.1576l.1125.195zm.2625 8.865.8775-.6225.1724.1426.27-.2551s.1949-.1877.4649-.48c-.1424.405-.2624.75-.36 1.05zm1.1249.75c-.09.2775-.1425.465-.1724.57l-3.135.2925.0524-.09.6676-.4649zm-3.4949-.12-.465-.6375 2.13-1.8675.885.705zm3.6074 1.5c.075.12.1651.2625.255.42s.1725.3.2475.465l-5.04.4725.12-.9375zm.795 1.7175v.0751a1.1777 1.1777 0 00.0375.36l-5.55.555.06-.4875zm.15 1.2975.0525.4575-.63.06-5.25.495.0525-.435zm-.1425 3.27c.2851-.915.4425-1.5675.5251-1.9425h.6525l-.06-.465s-.15-1.1775-.255-2.145a6.1483 6.1483 0 00-1.0875-2.3925 2.2612 2.2612 0 01.1425-.465c.15-.48.4125-1.245.8176-2.3925a13.5 13.5 0 00.6074-2.3925c.0675-.4425.1125-.8475.135-1.2v20.452c-.2475-.1426-.5325-.3-.8325-.4575l-.645-.3225zm1.155-15.57a9.8555 9.8555 0 00-1.2075-1.35l-.4125-.75a2.4678 2.4678 0 001.2075-.405 1.92 1.92 0 00.75-.87v4.0575a1.68 1.68 0 00-.345-.6975zm-1.155-.0675a5.9042 5.9042 0 01.4425.555 1.1154 1.1154 0 01.1725.33v.57a11.75 11.75 0 01-.1425 1.77 5.3382 5.3382 0 01-1.005 1.7625c-.195.2475-.39.4575-.5325.6075l-2.895-2.3475 1.1775-2.385zm-3.915 1.2375-1.1174 2.25.1875.15-.2625.2625c-.0525-.2025-.105-.4126-.1425-.5851a2.3852 2.3852 0 01-.045-.45.9975.9975 0 01.225-.6675c.1574-.21.435-.4725.75-.855zm-.255 2.9475.75.5925-1.995 1.71-.45-.615zm-1.395-2.7225-.1949.2324a1.8821 1.8821 0 00-.3975 1.185 3.2675 3.2675 0 00.0675.615c.0675.3675.2025.8475.2849 1.1325l-.75.75-.495-.1275v-5.31a2.4789 2.4789 0 00.4425.1049 8.986 8.986 0 001.0125.09zm-.6975 5.25 1.2525 1.7025a1.154 1.154 0 01-.63.48h-.1875a1.305 1.305 0 01-.87-.33 1.3546 1.3546 0 01-.18-.18zm.1725 3.045-.2325 1.8975c-.165.0675-.405.1877-.6975.3375v-2.565a2.1366 2.1366 0 00.915.36zm-3.3375 7.2975-.39-.36 3.4425-2.4225h.0825l-.165.93zm3.0525 2.25.405-1.995.555-3.15 1.02-.0975-1.6125 6.645-.6375-.06zm2.895-5.3325 1.185-.1125-2.25 6.9825-.5475-.0525zm2.115-.195.9975-.0975a1.5718 1.5718 0 01-.0825.3225c-.15.5925-.405 1.5-.81 2.6475a32.529 32.529 0 01-1.3275 3.165c-.2475.5175-.4575.93-.585 1.1775l-.5475-.0525zm.51 4.2675v3.42a6.5217 6.5217 0 00-1.2075-.3225h-.1875c.3075-.645.87-1.77 1.38-3.0525zm-1.7925 3.9525.435.0675a8.4212 8.4212 0 012.445.915c.75.405 1.38.8025 1.725.96s.9225.375 1.5.6075l-.3825.2324-6-2.1525zm-4.815-14.482-.165.4575-3.645-1.5.1125-.2625zm-2.7749.33v6.3675c-.5625.465-1.05.8625-1.5 1.23v-8.2276zm-3.6075 21.885a5.2488 5.2488 0 002.25-.45 10.72 10.72 0 001.995-1.215l2.1 1.23v.0451a.8539.8539 0 01-.1275.4725 10.553 10.553 0 00-1.1775-.09h-.5025c-1.44.1048-2.01.375-2.9325.375h-.2325c-1.1925-.0451-1.635-.12-1.8749-.3826a.649.649 0 01-.09-.1049 1.3284 1.3284 0 00.6.0975zm6.3-12a7.3242 7.3242 0 01-.99.4875h-.0525a4.0683 4.0683 0 00-.2925-.5025l2.19-1.3725-.135.75a2.4987 2.4987 0 01-.705.6525zm.8025 5.1525 1.1025.12-.195.6a3.2912 3.2912 0 01-.51-.2174.8627.8627 0 01-.39-.4875zm3.51 2.25v5.175h-1.5v-5.55zm4.6575 1.1775-.9525 1.905a2.034 2.034 0 00-.495.1576v-2.4zm2.37-2.6175c-.585-.2251-1.2075-.4725-1.5-.585v-31.05a2.1753 2.1753 0 01.96.3975 1.1925 1.1925 0 01.5175.9375zm-1.905-32.535a3.2466 3.2466 0 00-1.575.3825 2.2526 2.2526 0 00-.255-.3l-.0825-.0751a17.183 17.183 0 00-.75-5.8875 4.8031 4.8031 0 00-.2475-.5625 11.395 11.395 0 011.9575 1.7625 11.551 11.551 0 012.7 5.1675 3.2551 3.2551 0 00-1.7325-.465zm-2.79-.5175a3.7513 3.7513 0 00-1.275-.21 5.9992 5.9992 0 00-1.32.1577 3 3 0 00-1.215.5775v-7.92a6.1645 6.1645 0 01.705.1048l.1725.0451a3.3677 3.3677 0 012.25 2.1975 15.084 15.084 0 01.6675 5.07zm-3.4275 3.39a5.78 5.78 0 00.8775.4575 2.3847 2.3847 0 00-.435 1.2075 1.4261 1.4261 0 00.045.3525v.1049c-.1725.2324-.5325.555-.8325.5325h.0074a1.2306 1.2306 0 01-.6375-.345 2.676 2.676 0 00-.3-.21 4.2288 4.2288 0 01.0825-.5474.4351.4351 0 00-.2325-.435l-.45-.2251c.2326-.36.375-.69.54-.975v.69a.8751.8751 0 00.5325.18 1.3419 1.3419 0 00.5775-.0825.9523.9523 0 00-.255-.3825 2.0461 2.0461 0 00-.81-.405c.045-.0751.09-.1726.135-.24a.831.831 0 01.24-.2251 2.5812 2.5812 0 00.2475-.2024 2.4008 2.4008 0 00.6825.7725zm-3.1425-2.8725a3.1949 3.1949 0 00-1.89.6075 21.262 21.262 0 01.5625-5.46c.5475-1.7925 1.41-2.9175 3.225-3.0675v8.445a3.6514 3.6514 0 00-1.8825-.5025zm-2.175-5.0925a22.051 22.051 0 00-.5925 5.715 3.1722 3.1722 0 00-1.905-.6225 3.2176 3.2176 0 00-1.74.495 11.663 11.663 0 012.6175-5.175 10.963 10.963 0 012.3175-2.0475 6.5853 6.5853 0 00-.6825 1.6575zm-3.9 6.3975a2.1674 2.1674 0 01.96-.3975v2.7h-1.5v-1.3425a1.1923 1.1923 0 01.555-.945zm20.34 37.852v-38.25a1.4321 1.4321 0 01.75.345 1.1915 1.1915 0 01.345.6675v37.238zm-.2475-43.5a13.432 13.432 0 00-1.23-1.68v-3h-.8625v2.0775a12.135 12.135 0 00-2.19-1.6425l2.595-3.9525 3.075 4.695v6.3225a15.709 15.709 0 00-1.35-2.8275zm-1.245-9.0675v-9.5175a1.185 1.185 0 011.275-1.05 1.5978 1.5978 0 01.9825.3375.9527.9527 0 01.3825.6825v13.575zm2.5875-11.032a2.5049 2.5049 0 00-1.3125-.3825 2.25 2.25 0 00-1.6875.75 1.9574 1.9574 0 00-1.5-.75 2.0474 2.0474 0 00-1.1025.3225l2.7975-7.785zm-2.3625-9.0825v-22.41q1.2525 1.41 2.415 2.9025v26.175zm-.8625-.1576-2.43 6.7125v-32.392q1.245 1.2 2.43 2.475zm-1.305 9.75a1.0725 1.0725 0 011.0875 1.05v9.4725l-2.205 3.36v-12.975a1.125 1.125 0 011.11-.96zm-18.165 1.0575a1.0725 1.0725 0 011.0873-1.0575 1.3724 1.3724 0 01.87.33.9749.9749 0 01.375.75v13.102l-2.3175-3.6v-9.5775zm2.325-3.9225-2.43-6.75v-37.5q1.23.57 2.43 1.1925zm-.0675 2.355a2.2494 2.2494 0 00-1.17-.3525 1.95 1.95 0 00-1.5.75 2.1974 2.1974 0 00-1.6575-.75 2.3621 2.3621 0 00-1.2525.36l2.8125-7.7775zm-3.225-9.12-2.4375 6.75v-45.682c.8175.3225 1.635.6525 2.4375 1.0125zm-2.0775 9.9675a1.5 1.5 0 01.9375-.33 1.17 1.17 0 011.245 1.05v9.465l-2.55 3.885v-13.432a.96.96 0 01.36-.6975zm2.61 11.138 2.5725 3.99a12.002 12.002 0 00-2.115 1.5825v-2.025h-.8625v2.835a12.623 12.623 0 00-1.2225 1.6575 15.305 15.305 0 00-1.3575 2.805v-6.39zm-3 14.775a1.2527 1.2527 0 01.48-.9525 1.7769 1.7769 0 01.6375-.3375v28.95l-1.1175-2.0325v-25.628zm.6525 29.55v7.725l-.9825.8775v-10.44zm31.02 7.5c-1.14 1.1475-2.3325 2.25-3.54 3.3225v-20.558a62.752 62.752 0 000-73.995v-2.8725l-.9975-1.65-.9675 1.65v.3076a62.92 62.92 0 00-5.7075-6.135v-1.44l-1.3125-1.8225v2.07a62.874 62.874 0 00-12.09-8.4375v-1.095l-1.3125-1.92v2.325a62.487 62.487 0 00-5.73-2.55v-2.9775l-.975-1.665-.99 1.665v2.25a62.501 62.501 0 00-8.7675-2.34v-10.5l-.6675-.84-.6525.84v10.275c-.675-.1125-1.35-.2175-2.025-.3075v-14.07a76.672 76.672 0 0145.75 130.42zm-.0975-60.082v-.75h-.8625v.75h-.75v.8625h.75v1.65l-2.58 3.945v-14.835l5.955 8.5125v6.21l-2.5125-3.825v-1.65h.75v-.8625zm-.4275 3.4275 2.94 4.5v2.0925a2.3549 2.3549 0 00-1.2975-.3975 2.13 2.13 0 00-1.6425.75 2.1748 2.1748 0 00-1.665-.75 2.4448 2.4448 0 00-1.3425.405v-1.9725zm2.1075 15.322a2.1 2.1 0 00-1.185-1.8825h2.01v3.75h-1.9875a2.1 2.1 0 001.1775-1.86zm-2.0925 1.6575a1.6575 1.6575 0 111.65-1.6649v.0074a1.6575 1.6575 0 01-1.635 1.665zm.4125-4.8525v-4.0125a1.14 1.14 0 011.2075-1.05 1.4549 1.4549 0 01.93.3375.96.96 0 01.3675.66v4.065zm-3.0675-4.7325a1.5 1.5 0 01.9675-.3375 1.1625 1.1625 0 011.2375 1.0575v4.0125h-2.58v-4.0725a.9453.9453 0 01.3975-.66zm1.74 6.045a2.0925 2.0925 0 000 3.75h-2.0925v-3.75zm5.1525 5.0775v-33.48l-.6675-1.0575-.645 1.0575v10.17l-5.955-8.5125v-19.792a61.89 61.89 0 010 71.032v-19.418zm-3.3975-14.64-.8325-1.335-.84 1.335.8325 1.335zm-27.6-66.608.8025.36.3525-.75.75.3525.36-.8025-.75-.3525.3525-.75-.8025-.45-.3525.75-.75-.3525-.36.8025.75.3525zm-.1575 2.25-.8025-.36-.3525.75-.75-.3525-.36.8025.75.3525-.3525.75.8025.36.3525-.75.75.3525.36-.8025-.75-.3525zm32.52 21.48h.0525v-1.3875l-1.335-.1875h-.0375v.5475l-4.38 3.405-.2175-.0825-.105-1.1625 3.93-3c.3225-.2475.495-.0825.495-.0825l.0525-.0449v-1.5826l-1.41-.1725h-.0525a1.2448 1.2448 0 01.1875.7125l-4.0575 3.1125a.4348.4348 0 01-.4275.075l-.0525.045.24 1.965a22.41 22.41 0 012.6775.9675l3.9375-3a.4725.4725 0 01.51-.1275zm-22.2-15.832-.75-.4875-.48.75-.7125-.4725-.4875.75.7125.48-.48.7125.75.4875.48-.7125.7125.48.4875-.75-.7125-.4725zm-27.99 26.512.8325 1.335.8325-1.335-.8325-1.335zm25.77-29.25v-.0675l-1.395-1.5 2.8275-1.08-.1425-.3-.435.195a10.793 10.793 0 01-1.125-1.8 20.251 20.251 0 01-3.24-.51l-.975 1.89a.4875.4875 0 01-.48.2325v.0525l1.5 1.755-3.6825 1.455.1725.2175.705-.255a10.79 10.79 0 011.5 1.74 17.868 17.868 0 013.3075.3075l1.095-2.115a.4349.4349 0 01.375-.2175zm-3.27 1.8075h-.255a15.176 15.176 0 00-1.59-1.905l2.4375-.975.5775.63zm.96-3.36-.585-.75 1.0575-2.04h.15a15.517 15.517 0 001.3575 2.04zm19.425 11.573.0525-.0525-.375-1.755-1.395-.09-.2475-1.5a7.1466 7.1466 0 01-1.455 0l-.0375.045c.2175.21.4125.6075.3375.6825l-3.63 3.7875a.4575.4575 0 01-.465.1425l-.0375.045.1725 1.38h1.3425l-.09-.54 3.6075-3.75.6225.0525.1875.81-3.4725 3.615c-.285.3-.48.1575-.48.1575l-.0525.0524.27 1.56 1.425-.0375.045-.0449a1.2592 1.2592 0 01-.2925-.675l3.54-3.69a.4348.4348 0 01.4275-.2025zm2.415 3.33a.4349.4349 0 01.4125-.1125l.0525-.045-.075-1.59a5.5547 5.5547 0 01-1.44-.105l-.045.0375s.495.5175.195.8025l-3.75 3.3525c-.3075.2775-.495.1275-.495.1275l-.0525.0525.15 1.575 1.425.06h.045a1.2077 1.2077 0 01-.24-.6975zm-10.965-3.9225s3.045-3.885 3.24-4.125a.4648.4648 0 01.4425-.1875v-.045l-.3075-1.35-1.335.15v.0375l.1425.5251-3.2175 4.1025h-.6375l-.2625-.75 3.09-3.945c.255-.3225.465-.21.465-.21l.0375-.0525-.42-1.5-1.41.18v.0525a1.2 1.2 0 01.3525.645l-3.1575 4.02a.4276.4276 0 01-.39.18l-.0525.0524.555 1.71 1.4025-.0449.39 1.455a7.3281 7.3281 0 011.4475-.1425v-.0525c-.21-.2475-.45-.6225-.3825-.705zm-57.48 124.16 1.5-1.14v-.5625a14.442 14.442 0 00-1.725.795 3.6317 3.6317 0 00.225.9075zm71.505-122.76h-1.86s-.27.345-.36.435a14.414 14.414 0 001.8525.405 3.6487 3.6487 0 00.3675-.84zm-62.062-18.15-.8325-1.335-.84 1.335.8325 1.335zm-2.655 11.775-.8325-1.335-.81 1.335.8325 1.335zm-46.088 69.562v-.69h.69v-.8625h-.69v-.69h-.8625v.69h-.69v.8625h.69v.69zm56.752-69.562-.8325-1.335-.8325 1.335.8325 1.335zm-2.5575-14.182-.8325-1.335-.8325 1.335.8325 1.335zm-55.432 71.182.8325 1.335.84-1.335-.8325-1.335zm60.75-68.708-.8175-1.35-.8325 1.335.8325 1.335zm-56.085 18.99.045.045 1.77-.45.4875 2.9325a6.195 6.195 0 011.965-.585 11.634 11.634 0 01.87-2.475l-1.62-1.755a.4427.4427 0 01-.1125-.42l-.045-.075-1.5.48-.3675-2.355a7.0554 7.0554 0 01-2.025.255 12.579 12.579 0 01-1.0125 2.37l1.44 1.56a.4574.4574 0 01.105.4725zm2.655-1.2825 1.7175 1.8675-.0525.195a10.181 10.181 0 00-1.9125.4575l-.39-2.3025zm-3.2925-1.9425a11.252 11.252 0 002.0325-.195l.255 1.8675-.75.135-1.56-1.6875zm7.8225-4.215a4.3423 4.3423 0 00-.3525 2.1975 3.5316 3.5316 0 011.98 0v-2.25a4.1781 4.1781 0 01.57-2.1225l.3975-.6075a3.8852 3.8852 0 011.8075.0675v-1.665a2.7675 2.7675 0 01.4575-1.8225h.4725c1.5 0 2.55-.0525 3.2775-.63a5.9988 5.9988 0 00-.525 2.34v2.085l-.105.12a2.4746 2.4746 0 01-1.44.585h-1.9575a5.5116 5.5116 0 010 1.815 4.0287 4.0287 0 001.695-.27 3.863 3.863 0 00-.3 1.815 4.2208 4.2208 0 012.04 0v-2.16a3.7493 3.7493 0 01.2625-1.6724 4.0916 4.0916 0 011.575 0v-3.6151c0-.6676-.1425-2.4976.375-3.285l.6375-.9676-.2325-.1574-.1875.285-.615.9675-.09.1275a3.1352 3.1352 0 01-2.4.795h-1.3125c-.645 0-1.02-.3-1.02-.5175h-.3675v2.0325c-.105.075-.2925.225-.5175.4125a2.55 2.55 0 01-1.4475.5925h-1.59a4.8774 4.8774 0 010 1.71 3.7064 3.7064 0 001.4325-.18 3.15 3.15 0 00-.15 1.0125l-.435.66a2.8052 2.8052 0 01-1.665.8175h-2.25a5.5043 5.5043 0 010 1.8075 4.9873 4.9873 0 001.98-.3075zm15.93-7.2225a3.7491 3.7491 0 00-.3825 1.905 4.1988 4.1988 0 012.04 0v-2.1075a3.9522 3.9522 0 01.2475-1.6425l.75-1.1475a4.3514 4.3514 0 001.98-.4125 3.3521 3.3521 0 00-.3825 1.8 3.8761 3.8761 0 011.8675 0v-1.95a2.9469 2.9469 0 01.27-1.59l1.0875-1.6425h2.1375l-1.1025 1.2975a3.2478 3.2478 0 00-.75 2.415 4.049 4.049 0 011.9575 0v-2.025a3.5245 3.5245 0 01.2625-1.6275 3.5324 3.5324 0 012.595 1.5l.24-.1425-1.11-1.8a3.84 3.84 0 00-3.255-1.5h-5.4975a1.86 1.86 0 01.1875 1.62 2.6708 2.6708 0 01-1.59.75h-2.25a5.517 5.517 0 010 1.815 3.6322 3.6322 0 003.315-1.395l.75-.99h3.7875l-.75 1.1625a2.82 2.82 0 01-1.6725.8176h-2.25a5.3433 5.3433 0 010 1.575l-.63.945a2.7145 2.7145 0 01-1.6275.75h-1.9276a5.4563 5.4563 0 010 1.8076 4.0211 4.0211 0 001.7025-.1725zm8.295 66.502h.8625v-.69h.69v-.8625h-.69v-.69h-.8625v.69h-.69v.8625h.69zm1.23-29.498-.8325-1.335-.8325 1.335.8325 1.335zm5.295 34.695h.8325v-.69h.75v-.8625h-.75v-.69h-.825v.69h-.675v.8625h.69zm1.98-40.868-.8325 1.335.8325 1.335.8325-1.335zm21.052 40.875h.8625v-.69h.69v-.8625h-.69v-.69h-.8625v.69h-.69v.8625h.69zm-66-57.832a14.006 14.006 0 00.2175-1.8825 3.4862 3.4862 0 00-.8925-.285l.225 1.8675a5.3555 5.3555 0 01.48.3225zm65.94 7.575h.8625v-.84h.8625v-.8625h-.8625v-.87h-.8625v.8625h-.87v.8625h.87zm-2.1225-14.07-.8325-1.335-.8325 1.335.8325 1.335zm-1.14 14.1h.8625v-.87h.87v-.8625h-.87v-.87h-.8625v.87h-.8775v.8625h.87zm-25.822 46.028a2.0925 2.0925 0 10-2.1-2.1 2.0926 2.0926 0 002.1 2.1zm0-3.75a1.6575 1.6575 0 11-1.6575 1.6575 1.6575 1.6575 0 011.6575-1.6575zm-35.25-45.3-.0525-.045-1.425.69-.7125-2.25a6.9825 6.9825 0 01-1.965.555 12.566 12.566 0 01-.66 2.4675l1.65 1.335a.465.465 0 01.18.45l.045.0375 1.6875-.705.9075 2.8275a6.37 6.37 0 011.8825-.8625 11.878 11.878 0 01.48-2.58l-1.8525-1.5a.4424.4424 0 01-.1425-.4275zm-2.28 1.6725-1.7925-1.4475v-.1125a11.311 11.311 0 002.0175-.51l.525 1.815zm3.75 1.68a10.32 10.32 0 00-1.8225.75l-.75-2.25.6075-.285 1.9725 1.59zm36.292 109.32h-2.19a1.0052 1.0052 0 01-.6675-.27 2.3412 2.3412 0 000-.435 2.3924 2.3924 0 00-.33-1.125 3.2194 3.2194 0 00.9825.15h.84a1.9117 1.9117 0 01-.225-.975 4.5544 4.5544 0 01.12-.975h-2.7526a1.665 1.665 0 01-1.26-.75l-.075-.1049a13.78 13.78 0 01-.75-1.1775h-3a2.73 2.73 0 001.23-1.005c.24-.3375.5175-.75.5175-.75l-1.3875-.75s-.8025 1.2525-1.0725 1.62a1.9952 1.9952 0 01-1.65.93h-.27a3.45 3.45 0 01-3-1.4251l-.255.15 1.17 1.785 1.3875 2.1075a5.1533 5.1533 0 01.495 2.46v1.8075a7.4158 7.4158 0 011.905 0v-1.0125a2.8356 2.8356 0 00-.45-1.35 2.82 2.82 0 001.1325.2324h.96a3.666 3.666 0 01-.0975-.9075 3.7518 3.7518 0 01.0975-.8325h-2.46a2.25 2.25 0 01-1.5-.825l-.63-.9525a5.4812 5.4812 0 002.76.495h4.8826a6.0455 6.0455 0 01.51 2.67v1.1025a6.1987 6.1987 0 011.9875 0v.0374a2.6856 2.6856 0 01.195 1.2375v1.875a3.3516 3.3516 0 011.6274 0 2.9245 2.9245 0 00-.3375-1.7475 2.3276 2.3276 0 00.75.1275h.84a1.3941 1.3941 0 01-.1875-.75 2.16 2.16 0 01.1574-.6675zm-47.212-91.252c.3225.54.075.705-.57 1.23l-4.6275-1.6125-.1575-.285a8.6847 8.6847 0 011.725-.4425v-.0675a5.13 5.13 0 01-.75-1.215h-.0675l-1.74.57.57 1.26-1.2375.69a7.14 7.14 0 01.6 1.32h.06c.0975-.2925.375-.63.48-.585l4.755 1.6575a.4575.4575 0 01.3225.3675h.06a11.252 11.252 0 011.6425-1.41l-.825-1.6425zm14.512-22.2-.045-.0375a1.2229 1.2229 0 01-.6675.3075l-3.75-3.4275a.435.435 0 01-.15-.405l-.0525-.0525-1.5675.24a5.6092 5.6092 0 01.045 1.4475l.045.0375s.4725-.5475.75-.27l3.7125 3.36c.3.2775.1725.48.1725.48l.0525.045 1.5525-.3075zm-11.542 16.395a1.2384 1.2384 0 01-.5325.51l-5.0775-2.25a.435.435 0 01-.27-.3375h-.0675l-1.7775 1.2225a8.8727 8.8727 0 01.4275 2.6625l4.3875 1.935a.465.465 0 01.2925.39h.0525l1.74-1.0875.675 1.395 1.4175-1.1325-1.215-3.3075zm-2.325 2.4825-4.9125-2.1375v-.0675l1.1625-.72 4.5825 2.0175.18.3825zm1.74.5925-.6225-1.3575 1.68.75zm2.385-7.2675c.225.5925-.27.81-1.2 1.3875l-1.5-.8625a17.433 17.433 0 01-.615-2.9625h-2.64a13.037 13.037 0 01-.195 2.5875l4.3875 2.475a.45.45 0 01.2475.4125h.0525a14.039 14.039 0 012.25-1.3725l-.5325-1.7775zm-5.7-1.155 2.25-.06s.21.885.39 1.5zm8.3775-2.0775 1.5-.57-.345-1.4475h-.0525a1.2378 1.2378 0 01-.6075.42l-4.2975-2.745a.4349.4349 0 01-.2175-.375l-.06-.0375-1.65.75.1876 1.3875-1.4025.54a7.2916 7.2916 0 01.285 1.425h.0525c.165-.255.51-.525.6-.465l4.455 2.805a.465.465 0 01.2325.4275h.0525l1.2749-.3825-.2775-1.3125h-.0449l-.51.195-4.4025-2.85-.0751-.6225.75-.345 4.245 2.685c.345.2175.255.4425.255.4425zm22.155 24 .8325 1.335.8325-1.335-.8325-1.335zm7.7925 1.335.8325-1.335-.8325-1.335-.8325 1.335zm-20.385 0 .8325-1.335-.8475-1.3725-.8326 1.335zm-21-6a17.456 17.456 0 01-1.365-2.7375h-.0675l-2.49.6825a12.581 12.581 0 01.4725 2.55l4.8675 1.275a.4653.4653 0 01.345.3375h.06a14.086 14.086 0 011.86-1.9125l-.9975-1.5825-.2325.1576c.3675.5176-.0675.8775-.8175 1.6275zm-3.3075-.87 2.13-.6225s.4275.8025.75 1.38zm31.942 5.4975-.8325-1.335-.8175 1.335.8325 1.335zm-30.75 9.75a17.288 17.288 0 01-1.995-2.25h-.0675l-2.25 1.29a12.693 12.693 0 011.1025 2.3475h5.0325a.465.465 0 01.4275.24h.06a13.894 13.894 0 011.305-2.3175l-1.2975-1.29-.18.21c.4875.405.165.84-.36 1.7925zm-3.42 0 1.92-1.125s.615.6675 1.095 1.14zm7.95 20.685-4.665 1.545a.4425.4425 0 01-.4275-.0675h-.0675l-.495 1.6875 1.5.8775-2.385.7875-.63 1.29a7.021 7.021 0 011.29.675h.0525c-.0975-.2925-.0825-.75 0-.75l7.14-2.37c.39-.1275.495.0751.495.0751h.0675l.495-1.5-1.2825-.63h-.0525a1.2676 1.2676 0 01-.06.75l-4.905 1.6275-.555-.3225.2325-.8175 5.0625-1.68a5.5834 5.5834 0 011.74-.435v-.1275a3.92 3.92 0 00-2.5275-.5925zm-9.855-24.225h.075s.0675-.75.48-.6675l7.14.855c.405.0525.42.285.42.285h.0675l1.065-1.1625-.9225-1.08a1.2371 1.2371 0 01-.3675.6375l-7.2375-.8625a.4424.4424 0 01-.36-.24h-.0675l-1.1475 1.1024a5.5235 5.5235 0 01.855 1.1325zm7.2075 21.75a17.49 17.49 0 01-2.55-1.6275h-.0675l-1.785 1.8675a12.679 12.679 0 011.7175 1.95l4.83-1.41a.4725.4725 0 01.4725.1126h.06a14.147 14.147 0 01.6075-2.595l-1.6425-.8625-.1125.2551c.5775.2475.39.75.1575 1.8225zm-3.2775.96 1.5-1.635s.75.465 1.365.795zm-3.4275-26.85c.06-.3.285-.675.39-.6525l6.96 1.335a.4574.4574 0 01.375.315h.06l1.5-1.575-1.065-2.55-4.695-.9225a.45.45 0 01-.345-.2625h-.0675l-1.4475 1.5.69 1.1175-2.0325-.3525-1.1775.8175a7.1919 7.1919 0 01.795 1.215zm3.3225-2.6775 5.25.9825v.0374l-.9075.9975-5.025-.9449-.1275-.1951zm3.5925 20.332.9525.975a4.4992 4.4992 0 00.96-.93l-.9525-.975a4.196 4.196 0 00-.9675.93zm-5.6475 4.6575 1.2375.75h.0675a1.23 1.23 0 01.1575-.75l2.31-1.755 4.65 1.545a13.063 13.063 0 01-.6675-1.5c-2.5125-.75-7.1025-2.34-7.59-2.61h-.06l-.66 1.2225 1.1025.75h.0075c-.0449-.2475.24-.4875.24-.4875l1.7251.555-2.145 1.5zm9.555 13.215a8.038 8.038 0 00.1425 2.13 3.71 3.71 0 00-2.7975-.75 5.9391 5.9391 0 010 2.01h1.77a4.5 4.5 0 012.385.8475l.45.6825a2.8949 2.8949 0 00-1.6575-.3 4.8908 4.8908 0 010 1.68h1.56a2.3474 2.3474 0 011.3125.5025v1.56a7.3345 7.3345 0 001.41 4.0125l.2025.3c-.75-.5325-1.38-.465-2.79-.4425l-.1725-.2251-2.3775-3.585a3.0608 3.0608 0 01-.255-1.5v-1.8075a3.7947 3.7947 0 01-1.86 0 2.5574 2.5574 0 00.4725 1.8225 4.5 4.5 0 00-1.6875-.2174 4.8514 4.8514 0 010 1.68h1.905a2.0474 2.0474 0 011.56.75l.6825 1.035a3.6111 3.6111 0 00-2.535-.6225 5.8808 5.8808 0 010 2.0625h2.13a2.8572 2.8572 0 011.68.69 2.73 2.73 0 01.135 1.71l1.56.0524a4.905 4.905 0 013.75 2.0175l.24.36a5.6186 5.6186 0 00.24 1.2825c-1.3275-1.5825-1.9725-1.5-4.815-1.5a5.0412 5.0412 0 01.0525 1.74h2.43a4.38 4.38 0 013.3525 1.8675l.1725.2625c.6075.9075 1.11 1.5975 1.11 1.5975l.2474-.1576s-.405-.57-.5925-.8775a9.4107 9.4107 0 01-.435-3.51v-6.5175a5.7064 5.7064 0 01-1.7925-.0675v5.25l-1.305-1.9725-.5325-.8475c-.405-.6375-.42-2.595-.42-3.5925v-.6375c0-.435.0375-1.98.63-1.98v-.33h-2.25l-.0675-.0825-1.1625-1.7475a5.2519 5.2519 0 01-.285-1.74v-2.88a3.6524 3.6524 0 01-1.7925-.0141zm-8.8125-20.362 4.8825-.3825a.4724.4724 0 01.4425.2024h.06l1.065-1.92-1.695-2.1825-5.2875.4125a.4425.4425 0 01-.3975-.165h-.0675c-.825 1.5-1.5825 2.7075-2.5575 4.2225a5.355 5.355 0 011.17.9451h.06a15.618 15.618 0 011.35-2.52zm-.285-2.5275 5.6925-.45-.6225 1.2-5.4225.4275-.225-.2925z"/>
  <path d="m168.87 157.26v-157.26h.4725v157.26h-.4725m11.175-27.892a4.5478 4.5478 0 004.8825 3.6675c2.25 0 4.1775-1.29 4.1775-3.6225 0-1.9725-.75-2.925-4.635-4.365-2.5275-.9525-2.79-1.6125-2.79-2.5425a2.4347 2.4347 0 012.7-2.5275 3.345 3.345 0 013.3075 2.58l1.08-.3225a4.32 4.32 0 00-4.3875-3.2774c-2.5425 0-3.9525 1.5-3.9525 3.5475 0 4.5375 7.425 3.09 7.425 6.75a2.5422 2.5422 0 01-2.7375 2.73 3.5443 3.5443 0 01-3.9075-3l-1.155.36zm20.032 3.4725v-1.0275h-6.93v-5.58h4.7325v-1.02h-4.7325v-5.055h6.57v-.99h-7.8225v13.71zm2.49 0h1.2525v-13.672h-1.2525v13.672zm3.855-12.682h4.08v12.682h1.2525v-12.682h4.0649v-.99h-9.375v1.02zm22.08 12.682v-1.0275h-2.25v-12.87h-.795l-3.075 1.005v.75l2.6175-.3825v11.505h-2.355v1.0275zm1.3275-2.5425c.75 1.86 2.3924 2.73 4.6125 2.73 2.715 0 4.6874-1.1775 4.6874-4.065a3.5077 3.5077 0 00-2.6174-3.4575 3.184 3.184 0 002.1975-3.225c0-2.565-2.37-3.3375-4.14-3.3375a5.16 5.16 0 00-4.14 2.16l.8925.645a3.8444 3.8444 0 013.15-1.785c1.8375 0 3 .75 3 2.43 0 1.8225-1.29 2.6625-3.75 2.6625h-1.0275v1.02h1.2525c2.5875 0 3.9525.9525 3.9525 2.925s-1.08 3-3.3825 3a3.4951 3.4951 0 01-3.66-2.25l-1.0049.57zm16.402-11.355c-2.6025 0-4.29 1.1775-4.29 3.4725 0 1.5.9075 2.6025 2.6175 3.21-2.355 1.065-3.15 2.3175-3.15 3.6825 0 2.7375 1.9725 3.75 4.8225 3.75s4.8225-.9825 4.8225-3.75c0-1.365-.795-2.6175-3.15-3.6825 1.71-.6075 2.625-1.71 2.625-3.21 0-2.295-1.6874-3.4725-4.29-3.4725zm-3.57 10.365c0-1.5 1.3275-2.25 3.57-3.1575 2.25.915 3.57 1.6725 3.57 3.1575 0 1.8675-1.5525 2.7-3.57 2.7s-3.57-.8325-3.57-2.7zm.5325-6.9525c0-1.6125 1.2525-2.3925 3.0375-2.3925s3.0375.75 3.0375 2.3925c0 1.5-1.3275 2.3175-3.0375 2.775-1.71-.4575-3.0375-1.29-3.0375-2.775zm18.548-2.25a5.31 5.31 0 00-3.24-1.1625c-3.8776 0-5.4675 4.08-5.4675 7.5 0 3.1575.8925 6.5475 4.71 6.5475 2.49 0 4.635-1.6275 4.635-4.2525a4.1691 4.1691 0 00-4.41-4.5 5.1148 5.1148 0 00-3.6825 1.8225c0-2.6025 1.065-6.1125 4.1925-6.1125a3.3222 3.3222 0 012.7 1.0425l.57-.93zm-.63 8.49a3.1122 3.1122 0 01-3.345 3.435c-2.13 0-3.4575-1.575-3.4575-4.0425a4.0327 4.0327 0 013.435-2.6775 3.1124 3.1124 0 013.36 3.285zm-80.212-28.365h6.57l-7.1625 11.662v1.02h8.8125v-1.02h-7.2525l7.155-11.625v-1.065h-8.1225v1.0275zm10.995-1.02v9.225c0 3.1125 1.6275 4.6725 4.9575 4.6725s4.9575-1.5525 4.9575-4.6725v-9.225h-1.2525v9.345c0 2.6175-1.275 3.5325-3.705 3.5325s-3.7049-.9075-3.7049-3.5325v-9.345zm13.71 13.71h1.2525v-4.575l2.5875-3 4.35 7.5525h1.4025l-4.9575-8.4675 4.425-5.25h-1.5375l-6.27 7.44v-7.44h-1.2525v13.74zm11.602-13.71v9.225c0 3.1125 1.6275 4.6725 4.9575 4.6725s4.9575-1.5525 4.9575-4.6725v-9.225h-1.2524v9.345c0 2.6175-1.275 3.5325-3.705 3.5325s-3.705-.9075-3.705-3.5325v-9.345zm13.71 13.71h1.2525v-12.69l7.335 12.682h1.29v-13.702h-1.2525v11.43h-.0374l-6.5025-11.43h-2.1075v13.71zm14.962 0v-6.6075h4.9575v-1.02h-4.9575v-5.055h6.8025v-1.02h-8.0475v13.71zm8.0025-12.682h4.065v12.682h1.2525v-12.69h4.065v-1.02h-9.3751v1.02zm-70.83-7.2v-6.12h5.5125v6.1425h2.73v-14.332h-2.73v5.7075h-5.5125v-5.7075h-2.73v14.302zm21.262 0v-2.295h-6.9525v-4.005h4.89v-2.295h-4.8975v-3.4125h6.75v-2.295h-9.4725v14.302zm5.4075 0v-14.31h-2.73v14.302zm3.495 0h4.7325c3.75 0 6.3975-2.1 6.42-7.155s-2.6325-7.155-6.42-7.155h-4.7325v14.31zm2.73-12h1.8225c3.135 0 3.87 2.295 3.87 4.8525s-.75 4.8525-3.87 4.8525h-1.8225v-9.705zm20.295 12v-2.295h-6.96v-4.005h4.8975v-2.295h-4.8975v-3.4125h6.75v-2.295h-9.4725v14.302zm11.25 0v-2.295h-6.24v-12h-2.73v14.302zm2.0625 0h5.25c3.645 0 5.2125-1.545 5.2125-3.75s-.6375-3-2.4974-3.75a3.1874 3.1874 0 002.175-3.2475c-.1577-2.5575-2.0025-3.51-4.8525-3.51h-5.31v14.302zm2.73-6.3825h2.7375c1.59 0 2.25.75 2.25 2.085s-.69 2.0775-2.25 2.0775h-2.7375zm0-5.7075h2.7375a1.7562 1.7562 0 110 3.4875h-2.7375v-3.4875zm20.295 12.09v-2.295h-6.9525v-4.005h4.875v-2.295h-4.8975v-3.4125h6.75v-2.295h-9.45v14.302zm5.0325 0v-5.8275h2.3625l2.6925 5.8275h3l-3.15-6.3825a3.54 3.54 0 002.6175-3.6825c0-2.3625-1.3275-4.2375-4.575-4.2375h-5.7075v14.302zm0-12.09h2.4975c1.5 0 2.3175.675 2.3175 2.025s-.6525 2.025-2.7975 2.025h-2.0249v-4.08zm20.692 1.23a5.0551 5.0551 0 00-5.19-3.645c-4.5825 0-6 3.9225-6 7.5675 0 4.0425 1.8 7.1325 5.6925 7.1325a4.5 4.5 0 003.75-1.665v1.5h1.98v-7.23h-5.3475v2.295h2.715a2.8275 2.8275 0 01-2.8147 2.84q-.0927 0-.1853-.0052c-1.905 0-3-1.905-3-4.9125 0-3.1725.99-5.19 3-5.19a2.8246 2.8246 0 012.8725 2.025l2.535-.675zm-109.74-14.85c0 2.3175-.915 3.135-2.7525 3.135s-2.7525-.81-2.7525-3.135v-9.075h-2.73v8.9625c0 4.185 2.5725 5.55 5.49 5.55s5.49-1.365 5.49-5.55v-8.9625h-2.73v9.075zm8.58 5.25v-10.2h.0375l5.85 10.185h2.6324v-14.31h-2.5724v9.75h-.0375l-5.6325-9.75h-2.85v14.31zm14.783 0v-14.325h-2.7375v14.31zm5.9249 0h3.0526l3.75-14.31h-2.6925l-2.655 10.545h-.0374l-2.535-10.545h-2.6925l3.75 14.31zm18.39 0v-2.31h-6.96v-4.0125h4.8975v-2.295h-4.8975v-3.4125h6.75v-2.295h-9.4725v14.31zm5.0324 0v-5.8425h2.3625l2.6925 5.8275h3l-3.15-6.3825a3.54 3.54 0 002.6175-3.69c0-2.3625-1.3275-4.2375-4.575-4.2375h-5.7075v14.31zm0-12.09h2.4975c1.5 0 2.3175.675 2.3175 2.025s-.6525 2.025-2.7974 2.025h-2.04v-4.065zm19.74.81a5.2051 5.2051 0 00-5.0551-3.225c-2.4749 0-4.6124 1.4475-4.6124 4.005 0 4.4025 7.3724 3.8475 7.3724 6.66 0 1.3875-1.05 1.905-2.4224 1.905a3.2761 3.2761 0 01-3.1126-2.25l-2.25.99a5.67 5.67 0 005.3474 3.39c3.1725 0 5.01-1.5 5.01-4.395 0-4.6425-7.3725-4.125-7.3725-6.585 0-1.11.855-1.5825 2.04-1.5825a2.6324 2.6324 0 012.5425 1.845l2.4975-.75zm6 11.25v-14.295h-2.73v14.31zm2.34-14.31v2.295h3.75v12h2.73v-12h3.75v-2.28zm15.638 2.7525h.0375l1.605 6.2025h-3.3825l1.6874-6.2025zm-5.85 11.558h2.715l.8475-3.09h4.5l.7875 3.09h2.715l-4.065-14.31h-3.39l-4.125 14.31zm2.7375-17.595v2.295h2.3775v-2.2875zm3.75 0v2.295h2.3775v-2.2875zm4.6575 3.2925v2.295h3.75v12h2.715v-12h3.75v-2.2875z"/>
 </g>
</svg>
