<svg width="99" height="31" fill="none" version="1.1" viewBox="0 0 99 31" xmlns="http://www.w3.org/2000/svg">
 <g clip-path="url(#clip0_944_1635)" fill="#00522e">
  <g fill="#00522e">
   <g fill="#00522e">
    <path d="m43.918 11.628c.067-.0621.1067-.1472.1105-.2375.0038-.0902-.0284-.1783-.09-.2455-1.3983-1.4558-3.0387-2.4017-5.3875-2.4017-5.4835 0-7.156 4.2867-7.156 7.2251 0 3.0188 1.6656 7.2452 7.156 7.2452 2.1797 0 3.8453-.8252 5.2847-2.1334.0674-.0659.107-.1543.1108-.2476.0038-.0932-.0284-.1844-.0902-.2555l-1.1927-1.4289c-.0605-.0685-.1461-.1111-.2384-.1186-.0922-.0075-.1838.0206-.2551.0783-.9665.7648-2.3442 1.4088-3.5985 1.4088-3.6808 0-4.2155-3.4012-4.2155-4.5483 0-1.1472.5141-4.5641 4.1949-4.5641 1.2132 0 2.6321.7044 3.4752 1.5296.0278.0344.063.0626.103.0826s.0839.0313.1287.0332c.0449.002.0897-.0056.1313-.0221s.0791-.0416.1099-.0736l1.4189-1.326z"/>
    <path d="m53.584 8.7031c-5.4835 0-7.156 4.327-7.156 7.2653 0 3.0189 1.6656 7.2855 7.156 7.2855 5.4492 0 7.1148-4.2666 7.1148-7.2855 0-2.9383-1.6656-7.2653-7.1148-7.2653zm0 11.914c-3.6808 0-4.1949-3.5018-4.1949-4.649 0-1.1471.5141-4.6087 4.1949-4.6087 3.6191 0 4.1538 3.4616 4.1538 4.6087 0 1.1472-.5347 4.649-4.1538 4.649z"/>
    <path d="m64.175 13.131c.0661.0628.1546.098.2468.098.0921 0 .1806-.0352.2467-.098 1.0282-.8945 1.9535-1.4289 2.776-1.4289 1.2338 0 1.5994.7446 1.5994 1.4289 0 .2616-.1439.9861-1.0487 2.2361l-4.6884 6.2613c-.1378.1797-.2102.3993-.2056.6239v.4472c.0028.0899.0406.1753.1055.2388.065.0636.1522.1006.244.1034h8.5017c.0918-.0028.1791-.0398.2441-.1034.0649-.0635.1027-.1489.1055-.2388v-1.8806c-.0028-.0898-.0406-.1752-.1055-.2388-.065-.0636-.1523-.1005-.2441-.1033h-4.5513l2.6527-3.5019c.9253-1.2477 1.7067-2.5962 1.7067-3.7634 0-2.6566-1.8918-3.9446-4.3411-3.9446-1.3983 0-2.9702.64402-4.4211 2.1333-.034.0307-.0612.0681-.0798.1097-.0186.0415-.0282.0864-.0282.1318 0 .0453.0096.0902.0282.1318s.0458.0789.0798.1097l1.1767 1.2478z"/>
    <path d="m86.944 8.9849c-.0354-.06645-.0885-.12231-.1536-.16167-.0652-.03936-.14-.06077-.2166-.06195-.0731.00402-.144.02679-.2053.06604-.0614.03924-.1111.09359-.1442.15758l-6.3129 13.746c-.0127.0332-.0172.0689-.013.1041.0041.0352.0168.0689.0369.0984.02.0295.047.0539.0786.0711.0316.0173.0669.027.1031.0283h2.5499c.1029-4e-4.2032-.0314.2877-.0889s.1491-.1388.1852-.2331l1.2338-2.9786h4.4416l1.2544 2.9786c.0338.0958.0978.1786.1828.2364.085.0579.1866.0879.2901.0856h2.5293c.0362-.0013.0715-.011.1031-.0283.0316-.0172.0586-.0416.0787-.0711.02-.0295.0327-.0632.0368-.0984.0042-.0352-3e-4-.0709-.013-.1041l-6.3334-13.746zm-.3496 5.3266 1.2955 3.1597h-2.591l1.2955-3.1597z"/>
    <path d="m99 9.2868c-.0028-.08985-.0406-.17525-.1055-.23882-.065-.06356-.1522-.10051-.244-.10331h-2.2208c-.0919.0028-.1791.03975-.2441.10331-.0649.06357-.1027.14897-.1055.23882v13.404c.0028.0898.0406.1752.1055.2388.065.0636.1522.1005.2441.1033h2.2208c.0918-.0028.179-.0397.244-.1033.0649-.0636.1027-.149.1055-.2388v-13.404z"/>
    <path d="m7.097 2.1064c.63329.62018.98904 1.4611.98904 2.3379 0 .87681-.35575 1.7177-.98904 2.3379l-2.5567 2.5-2.5544-2.5c-.63329-.62018-.98904-1.4611-.98904-2.3379 0-.8768.35575-1.7177.98904-2.3379l.16679-.16324c.63367-.61981 1.4929-.96799 2.3888-.96799s1.7551.34818 2.3888.96799l.16679.16324zm.70371 5.3668-2.5452 2.5 2.5452 2.5c.40649.3975.72896.8695.94897 1.389.22001.5196.33325 1.0764.33325 1.6388s-.11324 1.1192-.33325 1.6388c-.22001.5195-.54248.9915-.94897 1.389l-2.5452 2.4911 2.5544 2.5c.40649.3975.72896.8695.94897 1.389s.33325 1.0764.33325 1.6388c0 .5623-.11324 1.1192-.33325 1.6387-.22001.5196-.54248.9916-.94897 1.389l-.16679.1633c-.82042.8022-1.9327 1.2529-3.0925 1.2529s-2.272-.4507-3.0925-1.2529l-.16679-.1633c-.40648-.3974-.72895-.8694-.94896-1.389-.22001-.5195-.33325-1.0764-.33325-1.6387 0-.5624.11324-1.1193.33325-1.6388s.54248-.9915.94896-1.389l2.5453-2.5-2.5544-2.4911c-.40648-.3975-.72895-.8695-.94896-1.389-.22001-.5196-.33325-1.0764-.33325-1.6388s.11324-1.1192.33325-1.6388c.22001-.5195.54248-.9915.94896-1.389l2.5544-2.5-2.5544-2.5023c-.40641-.3973-.72883-.8691-.94881-1.3884s-.33321-1.076-.33321-1.6382c0-.56219.11323-1.1189.33321-1.6382s.5424-.99114.94881-1.3884l.16679-.16324c.40594-.39777.888-.71332 1.4186-.92862.53063-.2153 1.0994-.32611 1.6738-.32611s1.1432.11082 1.6738.32611c.53063.2153 1.0127.53085 1.4186.92862l.16679.16324c.40642.3973.72884.8691.94882 1.3884s.3332 1.076.3332 1.6382c0 .5622-.11322 1.1189-.3332 1.6382s-.5424.99114-.94882 1.3884v.00223zm-5.8148 5.6888 2.5544-2.5001 2.5567 2.5001c.63329.6201.98904 1.4611.98904 2.3379s-.35575 1.7177-.98904 2.3379l-2.5567 2.5112-2.5544-2.5112c-.63329-.6202-.98904-1.4611-.98904-2.3379s.35575-1.7178.98904-2.3379zm0 11.056 2.5544-2.5001 2.5567 2.5001c.63329.6202.98904 1.4611.98904 2.3379s-.35575 1.7177-.98904 2.3379l-.16679.1632c-.63367.6199-1.4929.968-2.3888.968s-1.7551-.3481-2.3888-.968l-.16679-.1632c-.63329-.6202-.98904-1.4611-.98904-2.3379s.35575-1.7177.98904-2.3379zm13.665-11.908c.3141-.3068.5633-.6712.7333-1.0724.1701-.4012.2576-.8312.2576-1.2655 0-.43432-.0875-.86437-.2576-1.2656-.17-.40117-.4192-.76558-.7333-1.0724l-.1668-.16324c-.6333-.61968-1.4921-.9678-2.3876-.9678s-1.7544.34812-2.3876.9678l-.1668.16324c-.63332.62018-.98906 1.4611-.98906 2.3379 0 .87683.35574 1.7177.98906 2.3379l2.5544 2.5 2.5544-2.5zm-1.8484 3.191 2.5544-2.5023c.4064-.3973.7288-.8691.9488-1.3884.22-.5194.3332-1.076.3332-1.6382 0-.56219-.1132-1.1189-.3332-1.6382-.22-.51934-.5424-.99115-.9488-1.3884l-.1668-.16324c-.4062-.39784-.8884-.71344-1.4192-.92877s-1.0998-.32616-1.6744-.32616-1.1436.11083-1.6744.32616-1.0131.53093-1.4192.92877l-.16683.16324c-.81969.80297-1.2801 1.8916-1.2801 3.0266 0 1.135.46043 2.2237 1.2801 3.0266l2.5567 2.5023-2.5567 2.5c-.81983.8034-1.2803 1.8924-1.2803 3.0278s.46049 2.2244 1.2803 3.0278l.16683.161c.4061.3978.8884.7134 1.4192.9287.5308.2154 1.0998.3262 1.6744.3262s1.1436-.1108 1.6744-.3262c.5308-.2153 1.013-.5309 1.4192-.9287l.1668-.161c.4065-.3975.7289-.8695.9489-1.389s.3333-1.0764.3333-1.6388-.1133-1.1192-.3333-1.6388c-.22-.5195-.5424-.9915-.9489-1.389l-2.5544-2.5zm-.706.6887-2.5544 2.5001c-.63332.6202-.98906 1.4611-.98906 2.3379s.35574 1.7177.98906 2.3379l.1668.1632c.6332.6197 1.4921.9678 2.3876.9678s1.7543-.3481 2.3876-.9678l.1668-.1632c.3141-.3068.5633-.6712.7333-1.0724.1701-.4011.2576-.8312.2576-1.2655s-.0875-.8644-.2576-1.2656c-.17-.4011-.4192-.7655-.7333-1.0723l-2.5544-2.5001zm11.122 1.6481c.6333-.6202.9891-1.4611.9891-2.3379s-.3558-1.7178-.9891-2.3379l-.1668-.1633c-.6336-.6198-1.4928-.968-2.3887-.968s-1.7551.3482-2.3888.968l-.1667.1633c-.6333.6201-.9891 1.4611-.9891 2.3379s.3558 1.7177.9891 2.3379l.1667.1632c.6337.6198 1.4929.968 2.3888.968s1.7551-.3482 2.3887-.968l.1668-.1632zm.7038-5.3668c.4064.3975.7289.8695.9489 1.389s.3333 1.0764.3333 1.6388c0 .5623-.1133 1.1192-.3333 1.6387-.22.5196-.5425.9915-.9489 1.389l-.1646.161c-.4061.3979-.8883.7135-1.4192.9288-.5308.2153-1.0998.3262-1.6744.3262s-1.1435-.1109-1.6744-.3262c-.5308-.2153-1.013-.5309-1.4192-.9288l-.1668-.161c-.4064-.3975-.7289-.8694-.9489-1.389-.22-.5195-.3333-1.0764-.3333-1.6387 0-.5624.1133-1.1193.3333-1.6388s.5425-.9915.9489-1.389l.1668-.1633c.4062-.3978.8884-.7134 1.4192-.9287.5309-.2153 1.0998-.3262 1.6744-.3262s1.1436.1109 1.6744.3262c.5309.2153 1.0131.5309 1.4192.9287l.1646.1633z" clip-rule="evenodd" fill-rule="evenodd"/>
   </g>
  </g>
 </g>
 <defs>
  <clipPath id="clip0_944_1635">
   <rect width="99" height="31" fill="#fff"/>
  </clipPath>
 </defs>
</svg>
