<svg width="276.91" height="79.463" version="1.1" xmlns="http://www.w3.org/2000/svg">
 <defs>
  <clipPath id="clipPath1422">
   <path d="m-873.67 2523h1954.9v-2764.8h-1954.9z" stroke-width="3.2841"/>
  </clipPath>
 </defs>
 <path transform="translate(-.99831 -1.0053)" d="m170.53 1.0312c-19.331.80828-20.031 20.75-20.031 20.75h-6.125c-.0197-.0197-15.219 15.722-15.219 15.719h20.75v42.406h22.5c.0361 0 .003-42.403 0-42.406h10.656v-15.719c0 .01642-9.9852.01314-9.9688 0 0 0 .11697-7.9713 10.219-7.5312v-11.469c-4.9718-1.4116-9.2015-1.8997-12.781-1.75zm-99.437.875v78h21.875v-25.562l22.844 25.562h27.938l-28.938-33.375 24.219-24.75h-27.375l-18.687 18.938v-38.812zm-25.562.03125v20.469s-44.226-6.7789-44.531 27.562c-.25616 28.778 28.699 29.938 28.844 29.938h37.188v-77.969zm141.5 19.844v15.719h25.156l-27.094 42.406h59v-15.031h-25.219l25.219-43.094zm-151.22 15.844c5.1361-.1146 9.7188 1.1875 9.7188 1.1875v24.031s-23.875 6.4351-23.875-11.969c0-10.598 7.5527-13.103 14.156-13.25zm227.28 13.25c-8.174 0-14.781 6.6072-14.781 14.781s6.6072 14.812 14.781 14.812 14.812-6.6385 14.812-14.812-6.6385-14.781-14.812-14.781z" clip-path="url(#clipPath1422)" fill="#0060a9"/>
</svg>
