<svg width="340px" height="57px" version="1.1" viewBox="0 0 340 57" xmlns="http://www.w3.org/2000/svg">
 <title>docmetric-logo-color</title>
 <desc>Created with Sketch.</desc>
 <g fill="none" fill-rule="evenodd">
  <g transform="translate(-677 -77)">
   <g transform="translate(677 77)">
    <path d="m266.04 10c-1.273 0-2.356.453-3.25 1.358-.895.904-1.341 1.983-1.341 3.234v7.306h-4.725v4.659h4.725v23.661c0 1.274.446 2.358 1.341 3.252.894.894 1.977 1.341 3.25 1.341h.067v-28.254h2.38c1.251 0 2.329-.446 3.235-1.34.905-.894 1.357-1.978 1.357-3.251v-.068h-6.972v-11.898h-.067zm31.059 1.073c-.66.67-.99 1.475-.99 2.413s.33 1.743.99 2.413c.659.67 1.457 1.005 2.397 1.005.937 0 1.741-.335 2.413-1.005.669-.67 1.004-1.475 1.004-2.413s-.335-1.743-1.004-2.413c-.672-.671-1.476-1.005-2.413-1.005-.94 0-1.738.334-2.397 1.005zm-66.825 11.127c-2.123.917-3.988 2.179-5.597 3.787-1.586 1.609-2.837 3.475-3.754 5.597-.916 2.123-1.375 4.391-1.375 6.804 0 2.435.459 4.715 1.375 6.838.917 2.122 2.168 3.987 3.754 5.596 1.609 1.587 3.474 2.838 5.597 3.754 2.122.916 4.402 1.374 6.837 1.374 3.172 0 6.089-.782 8.747-2.345 2.726-1.587 4.872-3.731 6.436-6.436l-.57-.335c-.804-.425-1.587-.636-2.345-.636-1.118 0-2.18.457-3.185 1.374-.804.781-1.687 1.452-2.648 2.01-1.943 1.14-4.09 1.708-6.435 1.708-1.788 0-3.463-.334-5.027-1.004-1.564-.671-2.927-1.597-4.088-2.782-1.855-1.854-3.051-4.112-3.588-6.769h30.266v-2.347c0-2.413-.458-4.681-1.375-6.804-.916-2.122-2.178-3.988-3.788-5.597-1.607-1.608-3.472-2.87-5.596-3.787-2.123-.916-4.391-1.374-6.804-1.374-2.435 0-4.715.458-6.837 1.374zm-2.278 7.071c1.161-1.183 2.524-2.111 4.088-2.78 1.564-.672 3.239-1.007 5.027-1.007 1.766 0 3.43.335 4.994 1.007 1.564.669 2.938 1.597 4.122 2.78 1.855 1.855 3.039 4.123 3.553 6.805h-25.372c.537-2.682 1.733-4.95 3.588-6.805zm89.34-7.037c-2.123.916-3.989 2.167-5.597 3.753-1.587 1.609-2.838 3.475-3.754 5.597-.915 2.123-1.374 4.402-1.374 6.838 0 2.413.459 4.681 1.374 6.804.916 2.122 2.167 3.987 3.754 5.596 1.608 1.609 3.474 2.866 5.597 3.771s4.402 1.357 6.836 1.357c3.152 0 6.045-.759 8.681-2.278 2.705-1.565 4.849-3.688 6.436-6.369l-.57-.335c-.826-.424-1.631-.637-2.414-.637-1.094 0-2.132.435-3.116 1.308-.804.76-1.687 1.418-2.648 1.976-1.922 1.118-4.044 1.675-6.369 1.675-1.787 0-3.462-.334-5.026-1.004-1.564-.671-2.927-1.587-4.089-2.748-1.184-1.185-2.112-2.559-2.782-4.123-.671-1.563-1.005-3.229-1.005-4.993 0-1.789.334-3.465 1.005-5.028.67-1.563 1.598-2.927 2.782-4.089 1.162-1.184 2.525-2.112 4.089-2.782s3.239-1.006 5.026-1.006c2.325 0 4.447.559 6.369 1.676.961.559 1.844 1.218 2.648 1.977.984.873 2.022 1.308 3.116 1.308.783 0 1.588-.212 2.414-.636l.57-.336c-1.587-2.681-3.731-4.792-6.436-6.334-2.636-1.543-5.529-2.313-8.681-2.313-2.434 0-4.713.458-6.836 1.375zm-120.92-.286c-1.631.705-3.072 1.671-4.324 2.9-.581.603-1.116 1.263-1.609 1.977-1.497-2.145-3.43-3.731-5.798-4.76-1.742-.781-3.563-1.173-5.462-1.173-.648 0-1.788.113-3.42.337-1.63.222-3.552 1.351-5.764 3.384-.916-1.765-2.324-2.647-4.223-2.647v32.912h.066c1.275 0 2.359-.447 3.252-1.341.894-.893 1.341-1.978 1.341-3.251v-15.887c0-2.435.872-4.513 2.613-6.233 1.431-1.386 3.007-2.212 4.727-2.48.492-.091.982-.135 1.473-.135 1.163 0 2.413.285 3.754.856 1.341.568 2.526 1.557 3.554 2.965 1.027 1.409 1.541 3.085 1.541 5.027v15.887c0 1.273.453 2.358 1.358 3.251.905.894 1.982 1.341 3.235 1.341h.066v-20.479c0-2.435.872-4.513 2.613-6.233 1.721-1.743 3.8-2.615 6.234-2.615 2.415 0 4.493.872 6.234 2.615 1.721 1.72 2.581 3.798 2.581 6.233v15.887c0 1.273.453 2.358 1.358 3.251.906.894 1.983 1.341 3.235 1.341h.066v-20.479c0-1.855-.352-3.596-1.055-5.229-.704-1.63-1.67-3.071-2.899-4.322-1.229-1.229-2.659-2.195-4.29-2.9-1.632-.703-3.375-1.056-5.23-1.056-1.853 0-3.596.353-5.227 1.056zm91.715-.016c-2.659 0-5.005.837-7.037 2.513-.94-1.676-2.304-2.513-4.09-2.513h-.067v32.946h.067c1.273 0 2.357-.453 3.251-1.358.894-.904 1.34-1.982 1.34-3.234v-17.16c0-1.788.638-3.318 1.91-4.592 1.229-1.228 2.748-1.877 4.56-1.942 1.296-.023 2.378-.477 3.25-1.358.872-.884 1.307-1.951 1.307-3.201v-.101h-4.491zm9.05.034v32.912h.067c1.272 0 2.356-.447 3.25-1.341.894-.893 1.341-1.978 1.341-3.251v-28.32h-4.658z" fill="#113262"/>
    <path d="m78.733 10.305v16.759c-.244-.27-.501-.536-.77-.805-1.609-1.608-3.475-2.866-5.597-3.771-2.123-.904-4.402-1.357-6.838-1.357-2.414 0-4.68.453-6.803 1.357-2.122.905-3.988 2.163-5.597 3.771-1.609 1.61-2.866 3.474-3.771 5.597s-1.357 4.391-1.357 6.804c0 2.436.452 4.715 1.357 6.838.905 2.121 2.162 3.987 3.771 5.596 1.609 1.587 3.475 2.837 5.597 3.753 2.123.917 4.389 1.375 6.803 1.375 2.436 0 4.715-.458 6.838-1.375 2.122-.916 3.988-2.166 5.597-3.753.269-.268.526-.547.77-.839v.27c0 1.25.448 2.328 1.341 3.233.894.906 1.977 1.358 3.251 1.358h.067v-40.219c0-1.274-.452-2.357-1.357-3.251-.905-.893-1.983-1.341-3.234-1.341h-.068zm-22.321 37.472c-1.163-1.162-2.078-2.526-2.747-4.089-.671-1.564-1.007-3.24-1.007-5.028 0-1.766.336-3.43 1.007-4.993.669-1.565 1.584-2.94 2.747-4.123 1.184-1.162 2.558-2.078 4.124-2.75 1.563-.669 3.228-1.004 4.992-1.004 1.788 0 3.464.335 5.028 1.004 1.565.672 2.928 1.588 4.089 2.75 1.184 1.183 2.111 2.558 2.781 4.123.671 1.563 1.007 3.227 1.007 4.993 0 1.788-.336 3.464-1.007 5.028-.67 1.563-1.597 2.927-2.781 4.089-1.161 1.183-2.524 2.111-4.089 2.78-1.564.672-3.24 1.006-5.028 1.006-1.764 0-3.429-.334-4.992-1.006-1.566-.669-2.94-1.597-4.124-2.78zm74.757-21.551c-1.587 1.608-2.838 3.473-3.754 5.596-.916 2.124-1.374 4.403-1.374 6.838 0 2.413.458 4.681 1.374 6.805.916 2.121 2.167 3.987 3.754 5.596 1.608 1.607 3.474 2.865 5.598 3.771 2.121.905 4.4 1.356 6.836 1.356 3.15 0 6.044-.759 8.68-2.279 2.705-1.563 4.849-3.687 6.436-6.367l-.571-.336c-.826-.423-1.631-.636-2.413-.636-1.094 0-2.134.435-3.117 1.308-.804.758-1.686 1.418-2.647 1.976-1.923 1.117-4.044 1.676-6.368 1.676-1.788 0-3.464-.335-5.028-1.005-1.563-.671-2.927-1.588-4.089-2.748-1.183-1.185-2.111-2.56-2.78-4.124-.672-1.563-1.006-3.228-1.006-4.993 0-1.788.334-3.464 1.006-5.027.669-1.565 1.597-2.928 2.78-4.089 1.162-1.184 2.526-2.112 4.089-2.782 1.564-.67 3.24-1.005 5.028-1.005 2.324 0 4.445.558 6.368 1.675.961.56 1.843 1.217 2.647 1.977.983.872 2.023 1.308 3.117 1.308.782 0 1.587-.213 2.413-.636l.571-.337c-1.587-2.68-3.731-4.792-6.436-6.334-2.636-1.541-5.53-2.313-8.68-2.313-2.436 0-4.715.458-6.836 1.375-2.124.917-3.99 2.167-5.598 3.754zm-38.643 0c-1.611 1.608-2.867 3.473-3.771 5.596-.906 2.124-1.358 4.391-1.358 6.804 0 2.436.452 4.715 1.358 6.839.904 2.121 2.16 3.987 3.771 5.596 1.608 1.607 3.473 2.865 5.596 3.771 2.123.905 4.39 1.356 6.803 1.356 2.436 0 4.716-.451 6.838-1.356 2.122-.906 3.988-2.164 5.597-3.771 1.608-1.609 2.865-3.475 3.772-5.596.903-2.124 1.357-4.403 1.357-6.839 0-2.413-.454-4.68-1.357-6.804-.907-2.123-2.164-3.988-3.772-5.596-1.609-1.609-3.475-2.866-5.597-3.771s-4.402-1.358-6.838-1.358c-2.413 0-4.68.453-6.803 1.358s-3.988 2.162-5.596 3.771zm3.284 21.551c-1.163-1.185-2.078-2.56-2.748-4.124-.671-1.563-1.006-3.239-1.006-5.027 0-1.765.335-3.43 1.006-4.993.67-1.565 1.585-2.939 2.748-4.123 1.185-1.162 2.558-2.078 4.122-2.748s3.228-1.005 4.993-1.005c1.788 0 3.464.335 5.028 1.005 1.565.67 2.938 1.586 4.123 2.748 1.161 1.184 2.077 2.558 2.748 4.123.671 1.563 1.006 3.228 1.006 4.993 0 1.788-.335 3.464-1.006 5.027-.671 1.564-1.587 2.939-2.748 4.124-1.185 1.16-2.558 2.077-4.123 2.748-1.564.67-3.24 1.005-5.028 1.005-1.765 0-3.429-.335-4.993-1.005-1.564-.671-2.937-1.588-4.122-2.748z" fill="#5888CF"/>
    <rect y="45.8" width="10.56" height="10.56" fill="#113262"/>
    <path d="m0 21h10.56v21.12h-10.56v-21.12z" fill="#2E5DA2"/>
    <rect width="10.56" height="10.56" fill="#5888CF"/>
    <rect x="14.784" y="45.8" width="10.56" height="10.56" fill="#113262"/>
    <rect x="14.784" y="25" width="10.56" height="10.56" fill="#2E5DA2"/>
    <path d="m29.568 35.24h10.56v21.12h-10.56v-21.12z" fill="#113262"/>
    <rect x="29.568" y="14" width="10.56" height="10.56" fill="#5888CF"/>
   </g>
  </g>
 </g>
</svg>
